<svg width="24" height="24" viewBox="0 0 24 24" fill="none" xmlns="http://www.w3.org/2000/svg">
<path d="M20 23.001H4C2.9 23.001 2 22.101 2 21.001C2 19.901 2.9 19.001 4 19.001H20C21.1 19.001 22 19.901 22 21.001C22 22.101 21.1 23.001 20 23.001ZM13.06 4.19104L16.81 7.94103L8.04 16.711C7.86 16.901 7.6 17.001 7.34 17.001H5C4.45 17.001 4 16.551 4 16.001V13.661C4 13.391 4.11 13.141 4.29 12.951L13.06 4.19104ZM17.88 6.87104L14.13 3.12104L15.96 1.29104C16.35 0.901035 16.98 0.901035 17.37 1.29104L19.71 3.63104C20.1 4.02104 20.1 4.65104 19.71 5.04104L17.88 6.87104Z" fill="black"/>
</svg>
