<svg width="20" height="20" viewBox="0 0 20 20" fill="none" xmlns="http://www.w3.org/2000/svg">
<path d="M13.3333 5.62301V14.4397C13.3333 16.1813 12.0583 17.7313 10.325 17.898C8.33329 18.0897 6.66663 16.5313 6.66663 14.5813V4.28134C6.66663 3.18967 7.44996 2.19801 8.53329 2.08967C9.78329 1.96467 10.8333 2.93967 10.8333 4.16467V12.9147C10.8333 13.373 10.4583 13.748 9.99996 13.748C9.54163 13.748 9.16663 13.373 9.16663 12.9147V5.62301C9.16663 5.28134 8.88329 4.99801 8.54163 4.99801C8.19996 4.99801 7.91663 5.28134 7.91663 5.62301V12.798C7.91663 13.8897 8.69996 14.8813 9.78329 14.9897C11.0333 15.1147 12.0833 14.1397 12.0833 12.9147V4.30634C12.0833 2.56467 10.8083 1.01467 9.07496 0.848006C7.09163 0.656339 5.41663 2.21467 5.41663 4.16467V14.3897C5.41663 16.7813 7.16663 18.923 9.54996 19.148C12.2916 19.398 14.5833 17.2647 14.5833 14.5813V5.62301C14.5833 5.28134 14.3 4.99801 13.9583 4.99801C13.6166 4.99801 13.3333 5.28134 13.3333 5.62301Z" fill="#98A2B3"/>
</svg>
