<svg width="20" height="20" viewBox="0 0 20 20" fill="none" xmlns="http://www.w3.org/2000/svg">
<path d="M12.9166 9.1665C13.607 9.1665 14.1666 8.60686 14.1666 7.9165C14.1666 7.22615 13.607 6.6665 12.9166 6.6665C12.2263 6.6665 11.6666 7.22615 11.6666 7.9165C11.6666 8.60686 12.2263 9.1665 12.9166 9.1665Z" fill="#98A2B3"/>
<path d="M7.08329 9.1665C7.77365 9.1665 8.33329 8.60686 8.33329 7.9165C8.33329 7.22615 7.77365 6.6665 7.08329 6.6665C6.39294 6.6665 5.83329 7.22615 5.83329 7.9165C5.83329 8.60686 6.39294 9.1665 7.08329 9.1665Z" fill="#98A2B3"/>
<path d="M9.99163 1.6665C5.39163 1.6665 1.66663 5.39984 1.66663 9.99984C1.66663 14.5998 5.39163 18.3332 9.99163 18.3332C14.6 18.3332 18.3333 14.5998 18.3333 9.99984C18.3333 5.39984 14.6 1.6665 9.99163 1.6665ZM9.99996 16.6665C6.31663 16.6665 3.33329 13.6832 3.33329 9.99984C3.33329 6.3165 6.31663 3.33317 9.99996 3.33317C13.6833 3.33317 16.6666 6.3165 16.6666 9.99984C16.6666 13.6832 13.6833 16.6665 9.99996 16.6665ZM13.675 11.5748C13.3833 11.3915 12.9916 11.4832 12.8166 11.7748C12.2 12.7498 11.15 13.3332 9.99996 13.3332C8.84996 13.3332 7.79996 12.7498 7.18329 11.7665C6.99996 11.4748 6.61663 11.3832 6.32496 11.5665C6.03329 11.7498 5.94163 12.1332 6.12496 12.4248C6.97496 13.7832 8.41663 14.5832 9.99996 14.5832C11.5833 14.5832 13.025 13.7748 13.875 12.4332C14.0583 12.1415 13.9666 11.7582 13.675 11.5748Z" fill="#98A2B3"/>
</svg>
