<svg width="28" height="28" viewBox="0 0 28 28" fill="none" xmlns="http://www.w3.org/2000/svg">
<path d="M19.833 2.3335C19.1914 2.3335 18.6664 2.8585 18.6664 3.50016V4.66682H9.33307V3.50016C9.33307 2.8585 8.80807 2.3335 8.16641 2.3335C7.52474 2.3335 6.99974 2.8585 6.99974 3.50016V4.66682H5.83308C4.53808 4.66682 3.51142 5.71682 3.51142 7.00015L3.49975 23.3334C3.49975 24.6168 4.53808 25.6668 5.83308 25.6668H22.1664C23.4497 25.6668 24.4997 24.6168 24.4997 23.3334V7.00015C24.4997 5.71682 23.4497 4.66682 22.1664 4.66682H20.9997V3.50016C20.9997 2.8585 20.4747 2.3335 19.833 2.3335ZM22.1664 23.3334H5.83308V11.6668H22.1664V23.3334ZM12.8331 15.1668C12.8331 14.5251 13.3581 14.0001 13.9997 14.0001C14.6414 14.0001 15.1664 14.5251 15.1664 15.1668C15.1664 15.8085 14.6414 16.3335 13.9997 16.3335C13.3581 16.3335 12.8331 15.8085 12.8331 15.1668ZM8.16641 15.1668C8.16641 14.5251 8.69141 14.0001 9.33307 14.0001C9.97474 14.0001 10.4997 14.5251 10.4997 15.1668C10.4997 15.8085 9.97474 16.3335 9.33307 16.3335C8.69141 16.3335 8.16641 15.8085 8.16641 15.1668ZM17.4997 15.1668C17.4997 14.5251 18.0247 14.0001 18.6664 14.0001C19.308 14.0001 19.833 14.5251 19.833 15.1668C19.833 15.8085 19.308 16.3335 18.6664 16.3335C18.0247 16.3335 17.4997 15.8085 17.4997 15.1668ZM12.8331 19.8334C12.8331 19.1918 13.3581 18.6668 13.9997 18.6668C14.6414 18.6668 15.1664 19.1918 15.1664 19.8334C15.1664 20.4751 14.6414 21.0001 13.9997 21.0001C13.3581 21.0001 12.8331 20.4751 12.8331 19.8334ZM8.16641 19.8334C8.16641 19.1918 8.69141 18.6668 9.33307 18.6668C9.97474 18.6668 10.4997 19.1918 10.4997 19.8334C10.4997 20.4751 9.97474 21.0001 9.33307 21.0001C8.69141 21.0001 8.16641 20.4751 8.16641 19.8334ZM17.4997 19.8334C17.4997 19.1918 18.0247 18.6668 18.6664 18.6668C19.308 18.6668 19.833 19.1918 19.833 19.8334C19.833 20.4751 19.308 21.0001 18.6664 21.0001C18.0247 21.0001 17.4997 20.4751 17.4997 19.8334Z" fill="#039855"/>
</svg>
