<svg width="28" height="28" viewBox="0 0 28 28" fill="none" xmlns="http://www.w3.org/2000/svg">
<path d="M14.0001 2.52705C9.10007 2.52705 4.66675 6.28371 4.66675 12.0937C4.66675 15.8037 7.52507 20.167 13.2301 25.1837C13.6734 25.5687 14.3384 25.5687 14.7817 25.1837C20.475 20.167 23.3334 15.8037 23.3334 12.0937C23.3334 6.28371 18.9 2.52705 14.0001 2.52705ZM14.0117 18.8603C13.3234 18.8603 12.7867 18.312 12.7867 17.6353C12.7867 16.947 13.3351 16.422 14.0117 16.422C14.7001 16.422 15.2251 16.947 15.2251 17.6353C15.2251 18.312 14.7117 18.8603 14.0117 18.8603ZM16.94 11.662C16.2051 12.747 15.5051 13.0737 15.1201 13.7737C15.0267 13.937 14.9684 14.077 14.9334 14.3454C14.8751 14.8004 14.5134 15.1387 14.0584 15.1387H14.0234C13.5101 15.1387 13.1017 14.6954 13.1484 14.182C13.1834 13.867 13.2534 13.517 13.4401 13.202C13.9184 12.3504 14.8167 11.8487 15.3417 11.102C15.9017 10.3087 15.5867 8.8387 14.0117 8.8387C13.3001 8.8387 12.8334 9.21204 12.5417 9.65537C12.3201 9.9937 11.8767 10.1104 11.5034 9.94703C11.0134 9.73703 10.8034 9.13037 11.1067 8.6987C11.7017 7.83537 12.6934 7.19371 14.0001 7.19371C15.4351 7.19371 16.4267 7.84704 16.9284 8.6637C17.3484 9.37537 17.605 10.682 16.94 11.662Z" fill="#7F56D9"/>
</svg>
