<svg width="28" height="28" viewBox="0 0 28 28" fill="none" xmlns="http://www.w3.org/2000/svg">
<path d="M12.25 15.0884H11.0833C10.115 15.0884 9.33331 14.3067 9.33331 13.3384C9.33331 12.3701 10.115 11.5884 11.0833 11.5884H12.25V10.4218C12.25 9.45342 13.0316 8.67176 14 8.67176C14.9683 8.67176 15.75 9.45342 15.75 10.4218V11.5884H16.9166C17.885 11.5884 18.6666 12.3701 18.6666 13.3384C18.6666 14.3067 17.885 15.0884 16.9166 15.0884H15.75V16.2551C15.75 17.2234 14.9683 18.0051 14 18.0051C13.0316 18.0051 12.25 17.2234 12.25 16.2551V15.0884ZM13.1833 2.55844L6.18332 5.18343C5.27332 5.53343 4.66666 6.39676 4.66666 7.37676V12.8601C4.66666 18.7517 8.64498 24.2467 14 25.5884C19.3549 24.2467 23.3333 18.7517 23.3333 12.8601V7.37676C23.3333 6.40843 22.7266 5.53343 21.8166 5.1951L14.8166 2.57011C14.2916 2.36011 13.7083 2.36011 13.1833 2.55844Z" fill="#F04438"/>
</svg>
