<svg width="18" height="18" viewBox="0 0 18 18" fill="none" xmlns="http://www.w3.org/2000/svg">
<path d="M9 4.125C10.4475 4.125 11.625 5.3025 11.625 6.75C11.625 8.1975 10.4475 9.375 9 9.375C7.5525 9.375 6.375 8.1975 6.375 6.75C6.375 5.3025 7.5525 4.125 9 4.125ZM9.75 10.8075C11.67 10.455 13.125 8.775 13.125 6.75C13.125 4.47 11.28 2.625 9 2.625C6.72 2.625 4.875 4.47 4.875 6.75C4.875 8.775 6.33 10.455 8.25 10.8075V12.375H7.5C7.0875 12.375 6.75 12.7125 6.75 13.125C6.75 13.5375 7.0875 13.875 7.5 13.875H8.25V14.625C8.25 15.0375 8.5875 15.375 9 15.375C9.4125 15.375 9.75 15.0375 9.75 14.625V13.875H10.5C10.9125 13.875 11.25 13.5375 11.25 13.125C11.25 12.7125 10.9125 12.375 10.5 12.375H9.75V10.8075Z" fill="#DD2590"/>
</svg>
