<svg width="20" height="20" viewBox="0 0 20 20" fill="none" xmlns="http://www.w3.org/2000/svg">
<path d="M3.33333 7.50016H13.3333C13.7917 7.50016 14.1667 7.12516 14.1667 6.66683C14.1667 6.2085 13.7917 5.8335 13.3333 5.8335H3.33333C2.875 5.8335 2.5 6.2085 2.5 6.66683C2.5 7.12516 2.875 7.50016 3.33333 7.50016ZM3.33333 10.8335H13.3333C13.7917 10.8335 14.1667 10.4585 14.1667 10.0002C14.1667 9.54183 13.7917 9.16683 13.3333 9.16683H3.33333C2.875 9.16683 2.5 9.54183 2.5 10.0002C2.5 10.4585 2.875 10.8335 3.33333 10.8335ZM3.33333 14.1668H13.3333C13.7917 14.1668 14.1667 13.7918 14.1667 13.3335C14.1667 12.8752 13.7917 12.5002 13.3333 12.5002H3.33333C2.875 12.5002 2.5 12.8752 2.5 13.3335C2.5 13.7918 2.875 14.1668 3.33333 14.1668ZM15.8333 14.1668H17.5V12.5002H15.8333V14.1668ZM15.8333 5.8335V7.50016H17.5V5.8335H15.8333ZM15.8333 10.8335H17.5V9.16683H15.8333V10.8335Z" fill="#98A2B3"/>
</svg>
