<svg width="24" height="24" viewBox="0 0 24 24" fill="none" xmlns="http://www.w3.org/2000/svg">
<path d="M18.9 5.82334H18.37L19.08 3.85334C19.32 3.20334 18.98 2.48334 18.33 2.25334C17.68 2.01334 16.96 2.35334 16.72 3.00334L15.7 5.82334H5.10998C3.73998 5.82334 2.77998 7.16334 3.20998 8.45334L5.00998 13.8233L3.21998 19.1933C2.77998 20.4833 3.74998 21.8233 5.10998 21.8233H18.89C20.25 21.8233 21.22 20.4833 20.79 19.1933L19.01 13.8233L20.79 8.45334C21.22 7.16334 20.26 5.82334 18.9 5.82334ZM15.01 14.8233H13.01V16.8233C13.01 17.3733 12.56 17.8233 12.01 17.8233C11.46 17.8233 11.01 17.3733 11.01 16.8233V14.8233H9.00998C8.45998 14.8233 8.00998 14.3733 8.00998 13.8233C8.00998 13.2733 8.45998 12.8233 9.00998 12.8233H11.01V10.8233C11.01 10.2733 11.46 9.82334 12.01 9.82334C12.56 9.82334 13.01 10.2733 13.01 10.8233V12.8233H15.01C15.56 12.8233 16.01 13.2733 16.01 13.8233C16.01 14.3733 15.56 14.8233 15.01 14.8233Z" fill="#D92D20"/>
</svg>
