<svg width="200" height="200" viewBox="0 0 200 200" fill="none" xmlns="http://www.w3.org/2000/svg">
<g clip-path="url(#clip0_17_15564)">
<line y1="-1" x2="6.41043" y2="-1" transform="matrix(0.446011 -0.895027 0.966433 0.256918 137.033 6.40509)" stroke="#B2DDFF" stroke-width="2"/>
<line y1="-1" x2="6.74021" y2="-1" transform="matrix(0.620124 -0.784504 0.921424 0.388557 154.853 6.2146)" stroke="#B2DDFF" stroke-width="2"/>
<line y1="-1" x2="7.12392" y2="-1" transform="matrix(0.754276 -0.656558 0.852613 0.522543 172.766 6.02356)" stroke="#B2DDFF" stroke-width="2"/>
<line y1="-1" x2="7.51076" y2="-1" transform="matrix(0.852613 -0.522543 0.754276 0.656558 190.801 5.64203)" stroke="#B2DDFF" stroke-width="2"/>
<line y1="-1" x2="7.51076" y2="-1" transform="matrix(-0.852613 -0.522543 0.754276 -0.656558 12.3165 5.64203)" stroke="#B2DDFF" stroke-width="2"/>
<line y1="-1" x2="7.12392" y2="-1" transform="matrix(-0.754276 -0.656558 0.852613 -0.522543 30.3534 6.02356)" stroke="#B2DDFF" stroke-width="2"/>
<line y1="-1" x2="6.74021" y2="-1" transform="matrix(-0.620124 -0.784504 0.921424 -0.388557 48.2671 6.2146)" stroke="#B2DDFF" stroke-width="2"/>
<line y1="-1" x2="6.41043" y2="-1" transform="matrix(-0.446011 -0.895027 0.966433 -0.256918 66.0864 6.40509)" stroke="#B2DDFF" stroke-width="2"/>
<line y1="-1" x2="6.18571" y2="-1" transform="matrix(-0.234673 -0.972074 0.991809 -0.127733 83.8402 6.59613)" stroke="#B2DDFF" stroke-width="2"/>
<line x1="100.56" y1="6.59613" x2="100.56" y2="0.490397" stroke="#B2DDFF" stroke-width="2"/>
<line y1="-1" x2="6.18571" y2="-1" transform="matrix(0.234673 -0.972074 0.991809 0.127733 119.28 6.59613)" stroke="#B2DDFF" stroke-width="2"/>
<line y1="-1" x2="6.41043" y2="-1" transform="matrix(0.446011 -0.895027 0.966433 0.256918 118.226 17.0903)" stroke="#B2DDFF" stroke-width="2"/>
<line y1="-1" x2="6.74021" y2="-1" transform="matrix(0.620124 -0.784504 0.921424 0.388557 136.042 16.8993)" stroke="#B2DDFF" stroke-width="2"/>
<line y1="-1" x2="7.12392" y2="-1" transform="matrix(0.754276 -0.656558 0.852613 0.522543 153.956 16.7088)" stroke="#B2DDFF" stroke-width="2"/>
<line y1="-1" x2="7.51076" y2="-1" transform="matrix(0.852613 -0.522543 0.754276 0.656558 171.993 16.3273)" stroke="#B2DDFF" stroke-width="2"/>
<line y1="-1" x2="7.85692" y2="-1" transform="matrix(0.921424 -0.388557 0.620124 0.784504 190.174 15.7548)" stroke="#B2DDFF" stroke-width="2"/>
<line y1="-1" x2="7.12392" y2="-1" transform="matrix(-0.754276 -0.656558 0.852613 -0.522543 11.5457 16.7088)" stroke="#B2DDFF" stroke-width="2"/>
<line y1="-1" x2="6.74021" y2="-1" transform="matrix(-0.620124 -0.784504 0.921424 -0.388557 29.4594 16.8993)" stroke="#B2DDFF" stroke-width="2"/>
<line y1="-1" x2="6.41043" y2="-1" transform="matrix(-0.446011 -0.895027 0.966433 -0.256918 47.2761 17.0903)" stroke="#B2DDFF" stroke-width="2"/>
<line y1="-1" x2="6.18571" y2="-1" transform="matrix(-0.234673 -0.972074 0.991809 -0.127733 65.0299 17.2808)" stroke="#B2DDFF" stroke-width="2"/>
<line x1="81.7496" y1="17.2808" x2="81.7496" y2="11.1751" stroke="#B2DDFF" stroke-width="2"/>
<line y1="-1" x2="6.18571" y2="-1" transform="matrix(0.234673 -0.972074 0.991809 0.127733 100.472 17.2808)" stroke="#B2DDFF" stroke-width="2"/>
<line y1="-1" x2="6.41043" y2="-1" transform="matrix(0.446011 -0.895027 0.966433 0.256918 99.4154 27.7755)" stroke="#B2DDFF" stroke-width="2"/>
<line y1="-1" x2="6.74021" y2="-1" transform="matrix(0.620124 -0.784504 0.921424 0.388557 117.235 27.5845)" stroke="#B2DDFF" stroke-width="2"/>
<line y1="-1" x2="7.12392" y2="-1" transform="matrix(0.754276 -0.656558 0.852613 0.522543 135.148 27.3936)" stroke="#B2DDFF" stroke-width="2"/>
<line y1="-1" x2="7.51076" y2="-1" transform="matrix(0.852613 -0.522543 0.754276 0.656558 153.185 27.012)" stroke="#B2DDFF" stroke-width="2"/>
<line y1="-1" x2="7.85692" y2="-1" transform="matrix(0.921424 -0.388557 0.620124 0.784504 171.366 26.4395)" stroke="#B2DDFF" stroke-width="2"/>
<line y1="-1" x2="8.12822" y2="-1" transform="matrix(0.966433 -0.256918 0.446011 0.895027 189.713 26.0579)" stroke="#B2DDFF" stroke-width="2"/>
<line y1="-1" x2="6.74021" y2="-1" transform="matrix(-0.620124 -0.784504 0.921424 -0.388557 10.6491 27.5845)" stroke="#B2DDFF" stroke-width="2"/>
<line y1="-1" x2="6.41043" y2="-1" transform="matrix(-0.446011 -0.895027 0.966433 -0.256918 28.4684 27.7755)" stroke="#B2DDFF" stroke-width="2"/>
<line y1="-1" x2="6.18571" y2="-1" transform="matrix(-0.234673 -0.972074 0.991809 -0.127733 46.2222 27.9661)" stroke="#B2DDFF" stroke-width="2"/>
<line x1="62.9419" y1="27.9661" x2="62.9419" y2="21.8603" stroke="#B2DDFF" stroke-width="2"/>
<line y1="-1" x2="6.18571" y2="-1" transform="matrix(0.234673 -0.972074 0.991809 0.127733 81.6616 27.9661)" stroke="#B2DDFF" stroke-width="2"/>
<line y1="-1" x2="6.41043" y2="-1" transform="matrix(0.446011 -0.895027 0.966433 0.256918 80.6077 38.4603)" stroke="#B2DDFF" stroke-width="2"/>
<line y1="-1" x2="6.74021" y2="-1" transform="matrix(0.620124 -0.784504 0.921424 0.388557 98.4244 38.2698)" stroke="#B2DDFF" stroke-width="2"/>
<line y1="-1" x2="7.12392" y2="-1" transform="matrix(0.754276 -0.656558 0.852613 0.522543 116.338 38.0787)" stroke="#B2DDFF" stroke-width="2"/>
<line y1="-1" x2="7.51076" y2="-1" transform="matrix(0.852613 -0.522543 0.754276 0.656558 134.375 37.6972)" stroke="#B2DDFF" stroke-width="2"/>
<line y1="-1" x2="7.85692" y2="-1" transform="matrix(0.921424 -0.388557 0.620124 0.784504 152.559 37.1247)" stroke="#B2DDFF" stroke-width="2"/>
<line y1="-1" x2="8.12822" y2="-1" transform="matrix(0.966433 -0.256918 0.446011 0.895027 170.905 36.7432)" stroke="#B2DDFF" stroke-width="2"/>
<line y1="-1" x2="8.30238" y2="-1" transform="matrix(0.991809 -0.127733 0.234673 0.972074 189.432 36.1707)" stroke="#B2DDFF" stroke-width="2"/>
<line y1="-1" x2="6.41043" y2="-1" transform="matrix(-0.446011 -0.895027 0.966433 -0.256918 9.65814 38.4603)" stroke="#B2DDFF" stroke-width="2"/>
<line y1="-1" x2="6.18571" y2="-1" transform="matrix(-0.234673 -0.972074 0.991809 -0.127733 27.4119 38.6513)" stroke="#B2DDFF" stroke-width="2"/>
<line x1="44.1316" y1="38.6513" x2="44.1316" y2="32.5456" stroke="#B2DDFF" stroke-width="2"/>
<line y1="-1" x2="6.18571" y2="-1" transform="matrix(0.234673 -0.972074 0.991809 0.127733 62.8539 38.6513)" stroke="#B2DDFF" stroke-width="2"/>
<line y1="-1" x2="6.41043" y2="-1" transform="matrix(0.446011 -0.895027 0.966433 0.256918 61.7974 49.1455)" stroke="#B2DDFF" stroke-width="2"/>
<line y1="-1" x2="6.74021" y2="-1" transform="matrix(0.620124 -0.784504 0.921424 0.388557 79.6167 48.9545)" stroke="#B2DDFF" stroke-width="2"/>
<line y1="-1" x2="7.12392" y2="-1" transform="matrix(0.754276 -0.656558 0.852613 0.522543 97.5304 48.764)" stroke="#B2DDFF" stroke-width="2"/>
<line y1="-1" x2="7.51076" y2="-1" transform="matrix(0.852613 -0.522543 0.754276 0.656558 115.567 48.382)" stroke="#B2DDFF" stroke-width="2"/>
<line y1="-1" x2="7.85692" y2="-1" transform="matrix(0.921424 -0.388557 0.620124 0.784504 133.748 47.8099)" stroke="#B2DDFF" stroke-width="2"/>
<line y1="-1" x2="8.12822" y2="-1" transform="matrix(0.966433 -0.256918 0.446011 0.895027 152.095 47.4279)" stroke="#B2DDFF" stroke-width="2"/>
<line y1="-1" x2="8.30238" y2="-1" transform="matrix(0.991809 -0.127733 0.234673 0.972074 170.622 46.8558)" stroke="#B2DDFF" stroke-width="2"/>
<line y1="-1" x2="6.18571" y2="-1" transform="matrix(-0.234673 -0.972074 0.991809 -0.127733 8.60424 49.3361)" stroke="#B2DDFF" stroke-width="2"/>
<line x1="25.3239" y1="49.3361" x2="25.3239" y2="43.2303" stroke="#B2DDFF" stroke-width="2"/>
<line y1="-1" x2="6.18571" y2="-1" transform="matrix(0.234673 -0.972074 0.991809 0.127733 44.0436 49.3361)" stroke="#B2DDFF" stroke-width="2"/>
<line x1="199.785" y1="47.2833" x2="191.426" y2="47.2833" stroke="#B2DDFF" stroke-width="2"/>
<line y1="-1" x2="6.41043" y2="-1" transform="matrix(0.446011 -0.895027 0.966433 0.256918 42.9897 59.8303)" stroke="#B2DDFF" stroke-width="2"/>
<line y1="-1" x2="6.74021" y2="-1" transform="matrix(0.620124 -0.784504 0.921424 0.388557 60.8064 59.6397)" stroke="#B2DDFF" stroke-width="2"/>
<line y1="-1" x2="7.12392" y2="-1" transform="matrix(0.754276 -0.656558 0.852613 0.522543 78.7201 59.4487)" stroke="#B2DDFF" stroke-width="2"/>
<line y1="-1" x2="7.51076" y2="-1" transform="matrix(0.852613 -0.522543 0.754276 0.656558 96.757 59.0672)" stroke="#B2DDFF" stroke-width="2"/>
<line y1="-1" x2="7.85692" y2="-1" transform="matrix(0.921424 -0.388557 0.620124 0.784504 114.941 58.4946)" stroke="#B2DDFF" stroke-width="2"/>
<line y1="-1" x2="8.12822" y2="-1" transform="matrix(0.966433 -0.256918 0.446011 0.895027 133.287 58.1132)" stroke="#B2DDFF" stroke-width="2"/>
<line y1="-1" x2="8.30238" y2="-1" transform="matrix(0.991809 -0.127733 0.234673 0.972074 151.814 57.5406)" stroke="#B2DDFF" stroke-width="2"/>
<line x1="6.51363" y1="60.0212" x2="6.51363" y2="53.9155" stroke="#B2DDFF" stroke-width="2"/>
<line y1="-1" x2="6.18571" y2="-1" transform="matrix(0.234673 -0.972074 0.991809 0.127733 25.2359 60.0212)" stroke="#B2DDFF" stroke-width="2"/>
<line x1="180.975" y1="57.9685" x2="172.615" y2="57.9685" stroke="#B2DDFF" stroke-width="2"/>
<line y1="-1" x2="8.30238" y2="-1" transform="matrix(-0.991809 -0.127733 0.234673 -0.972074 199.691 57.5406)" stroke="#B2DDFF" stroke-width="2"/>
<line y1="-1" x2="6.41043" y2="-1" transform="matrix(0.446011 -0.895027 0.966433 0.256918 24.1794 70.5155)" stroke="#B2DDFF" stroke-width="2"/>
<line y1="-1" x2="6.74021" y2="-1" transform="matrix(0.620124 -0.784504 0.921424 0.388557 41.9987 70.3245)" stroke="#B2DDFF" stroke-width="2"/>
<line y1="-1" x2="7.12392" y2="-1" transform="matrix(0.754276 -0.656558 0.852613 0.522543 59.9124 70.1339)" stroke="#B2DDFF" stroke-width="2"/>
<line y1="-1" x2="7.51076" y2="-1" transform="matrix(0.852613 -0.522543 0.754276 0.656558 77.9493 69.7524)" stroke="#B2DDFF" stroke-width="2"/>
<line y1="-1" x2="7.85692" y2="-1" transform="matrix(0.921424 -0.388557 0.620124 0.784504 96.1305 69.1799)" stroke="#B2DDFF" stroke-width="2"/>
<line y1="-1" x2="8.12822" y2="-1" transform="matrix(0.966433 -0.256918 0.446011 0.895027 114.477 68.7983)" stroke="#B2DDFF" stroke-width="2"/>
<line y1="-1" x2="8.30238" y2="-1" transform="matrix(0.991809 -0.127733 0.234673 0.972074 133.004 68.2258)" stroke="#B2DDFF" stroke-width="2"/>
<line y1="-1" x2="6.18571" y2="-1" transform="matrix(0.234673 -0.972074 0.991809 0.127733 6.42565 70.7065)" stroke="#B2DDFF" stroke-width="2"/>
<line x1="162.167" y1="68.6533" x2="153.808" y2="68.6533" stroke="#B2DDFF" stroke-width="2"/>
<line y1="-1" x2="8.30238" y2="-1" transform="matrix(-0.991809 -0.127733 0.234673 -0.972074 180.88 68.2258)" stroke="#B2DDFF" stroke-width="2"/>
<line y1="-1" x2="8.12822" y2="-1" transform="matrix(-0.966433 -0.256918 0.446011 -0.895027 199.408 68.7983)" stroke="#B2DDFF" stroke-width="2"/>
<line y1="-1" x2="6.41043" y2="-1" transform="matrix(0.446011 -0.895027 0.966433 0.256918 5.37175 81.2007)" stroke="#B2DDFF" stroke-width="2"/>
<line y1="-1" x2="6.74021" y2="-1" transform="matrix(0.620124 -0.784504 0.921424 0.388557 23.1884 81.0097)" stroke="#B2DDFF" stroke-width="2"/>
<line y1="-1" x2="7.12392" y2="-1" transform="matrix(0.754276 -0.656558 0.852613 0.522543 41.1021 80.8187)" stroke="#B2DDFF" stroke-width="2"/>
<line y1="-1" x2="7.51076" y2="-1" transform="matrix(0.852613 -0.522543 0.754276 0.656558 59.139 80.4371)" stroke="#B2DDFF" stroke-width="2"/>
<line y1="-1" x2="7.85692" y2="-1" transform="matrix(0.921424 -0.388557 0.620124 0.784504 77.3228 79.8646)" stroke="#B2DDFF" stroke-width="2"/>
<line y1="-1" x2="8.12822" y2="-1" transform="matrix(0.966433 -0.256918 0.446011 0.895027 95.6691 79.4831)" stroke="#B2DDFF" stroke-width="2"/>
<line y1="-1" x2="8.30238" y2="-1" transform="matrix(0.991809 -0.127733 0.234673 0.972074 114.196 78.911)" stroke="#B2DDFF" stroke-width="2"/>
<line y1="-1" x2="7.85692" y2="-1" transform="matrix(-0.921424 -0.388557 0.620124 -0.784504 198.946 79.8646)" stroke="#B2DDFF" stroke-width="2"/>
<line x1="143.359" y1="79.3385" x2="135" y2="79.3385" stroke="#B2DDFF" stroke-width="2"/>
<line y1="-1" x2="8.30238" y2="-1" transform="matrix(-0.991809 -0.127733 0.234673 -0.972074 162.073 78.911)" stroke="#B2DDFF" stroke-width="2"/>
<line y1="-1" x2="8.12822" y2="-1" transform="matrix(-0.966433 -0.256918 0.446011 -0.895027 180.597 79.4831)" stroke="#B2DDFF" stroke-width="2"/>
<line y1="-1" x2="6.74021" y2="-1" transform="matrix(0.620124 -0.784504 0.921424 0.388557 4.38077 91.6949)" stroke="#B2DDFF" stroke-width="2"/>
<line y1="-1" x2="7.12392" y2="-1" transform="matrix(0.754276 -0.656558 0.852613 0.522543 22.2945 91.5039)" stroke="#B2DDFF" stroke-width="2"/>
<line y1="-1" x2="7.51076" y2="-1" transform="matrix(0.852613 -0.522543 0.754276 0.656558 40.3314 91.1224)" stroke="#B2DDFF" stroke-width="2"/>
<line y1="-1" x2="7.85692" y2="-1" transform="matrix(0.921424 -0.388557 0.620124 0.784504 58.5125 90.5499)" stroke="#B2DDFF" stroke-width="2"/>
<line y1="-1" x2="8.12822" y2="-1" transform="matrix(0.966433 -0.256918 0.446011 0.895027 76.8588 90.1683)" stroke="#B2DDFF" stroke-width="2"/>
<line y1="-1" x2="8.30238" y2="-1" transform="matrix(0.991809 -0.127733 0.234673 0.972074 95.3859 89.5958)" stroke="#B2DDFF" stroke-width="2"/>
<line y1="-1" x2="7.85692" y2="-1" transform="matrix(-0.921424 -0.388557 0.620124 -0.784504 180.136 90.5499)" stroke="#B2DDFF" stroke-width="2"/>
<line y1="-1" x2="7.51076" y2="-1" transform="matrix(-0.852613 -0.522543 0.754276 -0.656558 198.32 91.1224)" stroke="#B2DDFF" stroke-width="2"/>
<line x1="124.549" y1="90.0233" x2="116.19" y2="90.0233" stroke="#B2DDFF" stroke-width="2"/>
<line y1="-1" x2="8.30238" y2="-1" transform="matrix(-0.991809 -0.127733 0.234673 -0.972074 143.262 89.5958)" stroke="#B2DDFF" stroke-width="2"/>
<line y1="-1" x2="8.12822" y2="-1" transform="matrix(-0.966433 -0.256918 0.446011 -0.895027 161.79 90.1683)" stroke="#B2DDFF" stroke-width="2"/>
<line y1="-1" x2="7.12392" y2="-1" transform="matrix(0.754276 -0.656558 0.852613 0.522543 3.48416 102.189)" stroke="#B2DDFF" stroke-width="2"/>
<line y1="-1" x2="7.51076" y2="-1" transform="matrix(0.852613 -0.522543 0.754276 0.656558 21.5211 101.807)" stroke="#B2DDFF" stroke-width="2"/>
<line y1="-1" x2="7.85692" y2="-1" transform="matrix(0.921424 -0.388557 0.620124 0.784504 39.7048 101.235)" stroke="#B2DDFF" stroke-width="2"/>
<line y1="-1" x2="8.12822" y2="-1" transform="matrix(0.966433 -0.256918 0.446011 0.895027 58.0511 100.854)" stroke="#B2DDFF" stroke-width="2"/>
<line y1="-1" x2="8.30238" y2="-1" transform="matrix(0.991809 -0.127733 0.234673 0.972074 76.5782 100.281)" stroke="#B2DDFF" stroke-width="2"/>
<line y1="-1" x2="7.85692" y2="-1" transform="matrix(-0.921424 -0.388557 0.620124 -0.784504 161.328 101.235)" stroke="#B2DDFF" stroke-width="2"/>
<line y1="-1" x2="7.51076" y2="-1" transform="matrix(-0.852613 -0.522543 0.754276 -0.656558 179.509 101.807)" stroke="#B2DDFF" stroke-width="2"/>
<line y1="-1" x2="7.12392" y2="-1" transform="matrix(-0.754276 -0.656558 0.852613 -0.522543 197.546 102.189)" stroke="#B2DDFF" stroke-width="2"/>
<line x1="105.741" y1="100.708" x2="97.3819" y2="100.708" stroke="#B2DDFF" stroke-width="2"/>
<line y1="-1" x2="8.30238" y2="-1" transform="matrix(-0.991809 -0.127733 0.234673 -0.972074 124.455 100.281)" stroke="#B2DDFF" stroke-width="2"/>
<line y1="-1" x2="8.12822" y2="-1" transform="matrix(-0.966433 -0.256918 0.446011 -0.895027 142.982 100.854)" stroke="#B2DDFF" stroke-width="2"/>
<line y1="-1" x2="7.51076" y2="-1" transform="matrix(0.852613 -0.522543 0.754276 0.656558 2.7134 112.492)" stroke="#B2DDFF" stroke-width="2"/>
<line y1="-1" x2="7.85692" y2="-1" transform="matrix(0.921424 -0.388557 0.620124 0.784504 20.8945 111.92)" stroke="#B2DDFF" stroke-width="2"/>
<line y1="-1" x2="8.12822" y2="-1" transform="matrix(0.966433 -0.256918 0.446011 0.895027 39.2408 111.538)" stroke="#B2DDFF" stroke-width="2"/>
<line y1="-1" x2="8.30238" y2="-1" transform="matrix(0.991809 -0.127733 0.234673 0.972074 57.7679 110.966)" stroke="#B2DDFF" stroke-width="2"/>
<line y1="-1" x2="7.85692" y2="-1" transform="matrix(-0.921424 -0.388557 0.620124 -0.784504 142.518 111.92)" stroke="#B2DDFF" stroke-width="2"/>
<line y1="-1" x2="7.51076" y2="-1" transform="matrix(-0.852613 -0.522543 0.754276 -0.656558 160.702 112.492)" stroke="#B2DDFF" stroke-width="2"/>
<line y1="-1" x2="7.12392" y2="-1" transform="matrix(-0.754276 -0.656558 0.852613 -0.522543 178.736 112.874)" stroke="#B2DDFF" stroke-width="2"/>
<line y1="-1" x2="6.74021" y2="-1" transform="matrix(-0.620124 -0.784504 0.921424 -0.388557 196.652 113.065)" stroke="#B2DDFF" stroke-width="2"/>
<line x1="86.9311" y1="111.394" x2="78.5716" y2="111.394" stroke="#B2DDFF" stroke-width="2"/>
<line y1="-1" x2="8.30238" y2="-1" transform="matrix(-0.991809 -0.127733 0.234673 -0.972074 105.644 110.966)" stroke="#B2DDFF" stroke-width="2"/>
<line y1="-1" x2="8.12822" y2="-1" transform="matrix(-0.966433 -0.256918 0.446011 -0.895027 124.172 111.538)" stroke="#B2DDFF" stroke-width="2"/>
<line y1="-1" x2="7.85692" y2="-1" transform="matrix(0.921424 -0.388557 0.620124 0.784504 2.08683 122.605)" stroke="#B2DDFF" stroke-width="2"/>
<line y1="-1" x2="8.12822" y2="-1" transform="matrix(0.966433 -0.256918 0.446011 0.895027 20.4331 122.224)" stroke="#B2DDFF" stroke-width="2"/>
<line y1="-1" x2="8.30238" y2="-1" transform="matrix(0.991809 -0.127733 0.234673 0.972074 38.9603 121.651)" stroke="#B2DDFF" stroke-width="2"/>
<line y1="-1" x2="7.85692" y2="-1" transform="matrix(-0.921424 -0.388557 0.620124 -0.784504 123.71 122.605)" stroke="#B2DDFF" stroke-width="2"/>
<line y1="-1" x2="7.51076" y2="-1" transform="matrix(-0.852613 -0.522543 0.754276 -0.656558 141.891 123.178)" stroke="#B2DDFF" stroke-width="2"/>
<line y1="-1" x2="7.12392" y2="-1" transform="matrix(-0.754276 -0.656558 0.852613 -0.522543 159.928 123.559)" stroke="#B2DDFF" stroke-width="2"/>
<line y1="-1" x2="6.74021" y2="-1" transform="matrix(-0.620124 -0.784504 0.921424 -0.388557 177.842 123.75)" stroke="#B2DDFF" stroke-width="2"/>
<line y1="-1" x2="6.41043" y2="-1" transform="matrix(-0.446011 -0.895027 0.966433 -0.256918 195.661 123.941)" stroke="#B2DDFF" stroke-width="2"/>
<line x1="68.1234" y1="122.078" x2="59.7639" y2="122.078" stroke="#B2DDFF" stroke-width="2"/>
<line y1="-1" x2="8.30238" y2="-1" transform="matrix(-0.991809 -0.127733 0.234673 -0.972074 86.8367 121.651)" stroke="#B2DDFF" stroke-width="2"/>
<line y1="-1" x2="8.12822" y2="-1" transform="matrix(-0.966433 -0.256918 0.446011 -0.895027 105.364 122.224)" stroke="#B2DDFF" stroke-width="2"/>
<line y1="-1" x2="8.12822" y2="-1" transform="matrix(0.966433 -0.256918 0.446011 0.895027 1.6228 132.908)" stroke="#B2DDFF" stroke-width="2"/>
<line y1="-1" x2="8.30238" y2="-1" transform="matrix(0.991809 -0.127733 0.234673 0.972074 20.15 132.336)" stroke="#B2DDFF" stroke-width="2"/>
<line y1="-1" x2="7.85692" y2="-1" transform="matrix(-0.921424 -0.388557 0.620124 -0.784504 104.9 133.29)" stroke="#B2DDFF" stroke-width="2"/>
<line y1="-1" x2="7.51076" y2="-1" transform="matrix(-0.852613 -0.522543 0.754276 -0.656558 123.084 133.862)" stroke="#B2DDFF" stroke-width="2"/>
<line y1="-1" x2="7.12392" y2="-1" transform="matrix(-0.754276 -0.656558 0.852613 -0.522543 141.12 134.244)" stroke="#B2DDFF" stroke-width="2"/>
<line y1="-1" x2="6.74021" y2="-1" transform="matrix(-0.620124 -0.784504 0.921424 -0.388557 159.034 134.435)" stroke="#B2DDFF" stroke-width="2"/>
<line y1="-1" x2="6.41043" y2="-1" transform="matrix(-0.446011 -0.895027 0.966433 -0.256918 176.851 134.626)" stroke="#B2DDFF" stroke-width="2"/>
<line y1="-1" x2="6.18571" y2="-1" transform="matrix(-0.234673 -0.972074 0.991809 -0.127733 194.605 134.816)" stroke="#B2DDFF" stroke-width="2"/>
<line x1="49.3131" y1="132.764" x2="40.9536" y2="132.764" stroke="#B2DDFF" stroke-width="2"/>
<line y1="-1" x2="8.30238" y2="-1" transform="matrix(-0.991809 -0.127733 0.234673 -0.972074 68.0264 132.336)" stroke="#B2DDFF" stroke-width="2"/>
<line y1="-1" x2="8.12822" y2="-1" transform="matrix(-0.966433 -0.256918 0.446011 -0.895027 86.5536 132.908)" stroke="#B2DDFF" stroke-width="2"/>
<line y1="-1" x2="8.30238" y2="-1" transform="matrix(0.991809 -0.127733 0.234673 0.972074 1.34229 143.021)" stroke="#B2DDFF" stroke-width="2"/>
<line y1="-1" x2="7.85692" y2="-1" transform="matrix(-0.921424 -0.388557 0.620124 -0.784504 86.0922 143.975)" stroke="#B2DDFF" stroke-width="2"/>
<line y1="-1" x2="7.51076" y2="-1" transform="matrix(-0.852613 -0.522543 0.754276 -0.656558 104.273 144.548)" stroke="#B2DDFF" stroke-width="2"/>
<line y1="-1" x2="7.12392" y2="-1" transform="matrix(-0.754276 -0.656558 0.852613 -0.522543 122.31 144.929)" stroke="#B2DDFF" stroke-width="2"/>
<line y1="-1" x2="6.74021" y2="-1" transform="matrix(-0.620124 -0.784504 0.921424 -0.388557 140.224 145.12)" stroke="#B2DDFF" stroke-width="2"/>
<line y1="-1" x2="6.41043" y2="-1" transform="matrix(-0.446011 -0.895027 0.966433 -0.256918 158.043 145.311)" stroke="#B2DDFF" stroke-width="2"/>
<line y1="-1" x2="6.18571" y2="-1" transform="matrix(-0.234673 -0.972074 0.991809 -0.127733 175.797 145.502)" stroke="#B2DDFF" stroke-width="2"/>
<line x1="192.517" y1="145.502" x2="192.517" y2="139.396" stroke="#B2DDFF" stroke-width="2"/>
<line x1="30.5055" y1="143.448" x2="22.1459" y2="143.448" stroke="#B2DDFF" stroke-width="2"/>
<line y1="-1" x2="8.30238" y2="-1" transform="matrix(-0.991809 -0.127733 0.234673 -0.972074 49.2188 143.021)" stroke="#B2DDFF" stroke-width="2"/>
<line y1="-1" x2="8.12822" y2="-1" transform="matrix(-0.966433 -0.256918 0.446011 -0.895027 67.7459 143.593)" stroke="#B2DDFF" stroke-width="2"/>
<line y1="-1" x2="7.85692" y2="-1" transform="matrix(-0.921424 -0.388557 0.620124 -0.784504 67.2819 154.66)" stroke="#B2DDFF" stroke-width="2"/>
<line y1="-1" x2="7.51076" y2="-1" transform="matrix(-0.852613 -0.522543 0.754276 -0.656558 85.4656 155.232)" stroke="#B2DDFF" stroke-width="2"/>
<line y1="-1" x2="7.12392" y2="-1" transform="matrix(-0.754276 -0.656558 0.852613 -0.522543 103.503 155.614)" stroke="#B2DDFF" stroke-width="2"/>
<line y1="-1" x2="6.74021" y2="-1" transform="matrix(-0.620124 -0.784504 0.921424 -0.388557 121.416 155.805)" stroke="#B2DDFF" stroke-width="2"/>
<line y1="-1" x2="6.41043" y2="-1" transform="matrix(-0.446011 -0.895027 0.966433 -0.256918 139.233 155.996)" stroke="#B2DDFF" stroke-width="2"/>
<line y1="-1" x2="6.18571" y2="-1" transform="matrix(-0.234673 -0.972074 0.991809 -0.127733 156.987 156.186)" stroke="#B2DDFF" stroke-width="2"/>
<line x1="173.706" y1="156.186" x2="173.706" y2="150.081" stroke="#B2DDFF" stroke-width="2"/>
<line y1="-1" x2="6.18571" y2="-1" transform="matrix(0.234673 -0.972074 0.991809 0.127733 192.429 156.186)" stroke="#B2DDFF" stroke-width="2"/>
<line x1="11.6952" y1="154.134" x2="3.33562" y2="154.134" stroke="#B2DDFF" stroke-width="2"/>
<line y1="-1" x2="8.30238" y2="-1" transform="matrix(-0.991809 -0.127733 0.234673 -0.972074 30.4084 153.706)" stroke="#B2DDFF" stroke-width="2"/>
<line y1="-1" x2="8.12822" y2="-1" transform="matrix(-0.966433 -0.256918 0.446011 -0.895027 48.9356 154.279)" stroke="#B2DDFF" stroke-width="2"/>
<line y1="-1" x2="6.41043" y2="-1" transform="matrix(0.446011 -0.895027 0.966433 0.256918 191.372 166.681)" stroke="#B2DDFF" stroke-width="2"/>
<line y1="-1" x2="7.85692" y2="-1" transform="matrix(-0.921424 -0.388557 0.620124 -0.784504 48.4742 165.345)" stroke="#B2DDFF" stroke-width="2"/>
<line y1="-1" x2="7.51076" y2="-1" transform="matrix(-0.852613 -0.522543 0.754276 -0.656558 66.6553 165.917)" stroke="#B2DDFF" stroke-width="2"/>
<line y1="-1" x2="7.12392" y2="-1" transform="matrix(-0.754276 -0.656558 0.852613 -0.522543 84.6922 166.299)" stroke="#B2DDFF" stroke-width="2"/>
<line y1="-1" x2="6.74021" y2="-1" transform="matrix(-0.620124 -0.784504 0.921424 -0.388557 102.606 166.49)" stroke="#B2DDFF" stroke-width="2"/>
<line y1="-1" x2="6.41043" y2="-1" transform="matrix(-0.446011 -0.895027 0.966433 -0.256918 120.425 166.681)" stroke="#B2DDFF" stroke-width="2"/>
<line y1="-1" x2="6.18571" y2="-1" transform="matrix(-0.234673 -0.972074 0.991809 -0.127733 138.179 166.872)" stroke="#B2DDFF" stroke-width="2"/>
<line x1="154.899" y1="166.872" x2="154.899" y2="160.766" stroke="#B2DDFF" stroke-width="2"/>
<line y1="-1" x2="6.18571" y2="-1" transform="matrix(0.234673 -0.972074 0.991809 0.127733 173.618 166.872)" stroke="#B2DDFF" stroke-width="2"/>
<line y1="-1" x2="8.30238" y2="-1" transform="matrix(-0.991809 -0.127733 0.234673 -0.972074 11.6008 164.391)" stroke="#B2DDFF" stroke-width="2"/>
<line y1="-1" x2="8.12822" y2="-1" transform="matrix(-0.966433 -0.256918 0.446011 -0.895027 30.1279 164.963)" stroke="#B2DDFF" stroke-width="2"/>
<line y1="-1" x2="6.41043" y2="-1" transform="matrix(0.446011 -0.895027 0.966433 0.256918 172.564 177.366)" stroke="#B2DDFF" stroke-width="2"/>
<line y1="-1" x2="6.74021" y2="-1" transform="matrix(0.620124 -0.784504 0.921424 0.388557 190.381 177.175)" stroke="#B2DDFF" stroke-width="2"/>
<line y1="-1" x2="7.85692" y2="-1" transform="matrix(-0.921424 -0.388557 0.620124 -0.784504 29.6639 176.03)" stroke="#B2DDFF" stroke-width="2"/>
<line y1="-1" x2="7.51076" y2="-1" transform="matrix(-0.852613 -0.522543 0.754276 -0.656558 47.8476 176.603)" stroke="#B2DDFF" stroke-width="2"/>
<line y1="-1" x2="7.12392" y2="-1" transform="matrix(-0.754276 -0.656558 0.852613 -0.522543 65.8845 176.984)" stroke="#B2DDFF" stroke-width="2"/>
<line y1="-1" x2="6.74021" y2="-1" transform="matrix(-0.620124 -0.784504 0.921424 -0.388557 83.7982 177.175)" stroke="#B2DDFF" stroke-width="2"/>
<line y1="-1" x2="6.41043" y2="-1" transform="matrix(-0.446011 -0.895027 0.966433 -0.256918 101.615 177.366)" stroke="#B2DDFF" stroke-width="2"/>
<line y1="-1" x2="6.18571" y2="-1" transform="matrix(-0.234673 -0.972074 0.991809 -0.127733 119.369 177.557)" stroke="#B2DDFF" stroke-width="2"/>
<line x1="136.088" y1="177.557" x2="136.088" y2="171.451" stroke="#B2DDFF" stroke-width="2"/>
<line y1="-1" x2="6.18571" y2="-1" transform="matrix(0.234673 -0.972074 0.991809 0.127733 154.811 177.557)" stroke="#B2DDFF" stroke-width="2"/>
<line y1="-1" x2="8.12822" y2="-1" transform="matrix(-0.966433 -0.256918 0.446011 -0.895027 11.3176 175.649)" stroke="#B2DDFF" stroke-width="2"/>
<line y1="-1" x2="6.41043" y2="-1" transform="matrix(0.446011 -0.895027 0.966433 0.256918 153.754 188.051)" stroke="#B2DDFF" stroke-width="2"/>
<line y1="-1" x2="6.74021" y2="-1" transform="matrix(0.620124 -0.784504 0.921424 0.388557 171.574 187.86)" stroke="#B2DDFF" stroke-width="2"/>
<line y1="-1" x2="7.12392" y2="-1" transform="matrix(0.754276 -0.656558 0.852613 0.522543 189.487 187.669)" stroke="#B2DDFF" stroke-width="2"/>
<line y1="-1" x2="7.85692" y2="-1" transform="matrix(-0.921424 -0.388557 0.620124 -0.784504 10.8562 186.715)" stroke="#B2DDFF" stroke-width="2"/>
<line y1="-1" x2="7.51076" y2="-1" transform="matrix(-0.852613 -0.522543 0.754276 -0.656558 29.0373 187.287)" stroke="#B2DDFF" stroke-width="2"/>
<line y1="-1" x2="7.12392" y2="-1" transform="matrix(-0.754276 -0.656558 0.852613 -0.522543 47.0742 187.669)" stroke="#B2DDFF" stroke-width="2"/>
<line y1="-1" x2="6.74021" y2="-1" transform="matrix(-0.620124 -0.784504 0.921424 -0.388557 64.9879 187.86)" stroke="#B2DDFF" stroke-width="2"/>
<line y1="-1" x2="6.41043" y2="-1" transform="matrix(-0.446011 -0.895027 0.966433 -0.256918 82.8073 188.051)" stroke="#B2DDFF" stroke-width="2"/>
<line y1="-1" x2="6.18571" y2="-1" transform="matrix(-0.234673 -0.972074 0.991809 -0.127733 100.561 188.242)" stroke="#B2DDFF" stroke-width="2"/>
<line x1="117.281" y1="188.242" x2="117.281" y2="182.136" stroke="#B2DDFF" stroke-width="2"/>
<line y1="-1" x2="6.18571" y2="-1" transform="matrix(0.234673 -0.972074 0.991809 0.127733 136 188.242)" stroke="#B2DDFF" stroke-width="2"/>
<line y1="-1" x2="6.41043" y2="-1" transform="matrix(0.446011 -0.895027 0.966433 0.256918 134.947 198.736)" stroke="#B2DDFF" stroke-width="2"/>
<line y1="-1" x2="6.74021" y2="-1" transform="matrix(0.620124 -0.784504 0.921424 0.388557 152.763 198.545)" stroke="#B2DDFF" stroke-width="2"/>
<line y1="-1" x2="7.12392" y2="-1" transform="matrix(0.754276 -0.656558 0.852613 0.522543 170.677 198.354)" stroke="#B2DDFF" stroke-width="2"/>
<line y1="-1" x2="7.51076" y2="-1" transform="matrix(0.852613 -0.522543 0.754276 0.656558 188.714 197.973)" stroke="#B2DDFF" stroke-width="2"/>
<line y1="-1" x2="7.51076" y2="-1" transform="matrix(-0.852613 -0.522543 0.754276 -0.656558 10.2297 197.973)" stroke="#B2DDFF" stroke-width="2"/>
<line y1="-1" x2="7.12392" y2="-1" transform="matrix(-0.754276 -0.656558 0.852613 -0.522543 28.2666 198.354)" stroke="#B2DDFF" stroke-width="2"/>
<line y1="-1" x2="6.74021" y2="-1" transform="matrix(-0.620124 -0.784504 0.921424 -0.388557 46.1803 198.545)" stroke="#B2DDFF" stroke-width="2"/>
<line y1="-1" x2="6.41043" y2="-1" transform="matrix(-0.446011 -0.895027 0.966433 -0.256918 63.997 198.736)" stroke="#B2DDFF" stroke-width="2"/>
<line y1="-1" x2="6.18571" y2="-1" transform="matrix(-0.234673 -0.972074 0.991809 -0.127733 81.7507 198.927)" stroke="#B2DDFF" stroke-width="2"/>
<line x1="98.4704" y1="198.927" x2="98.4704" y2="192.821" stroke="#B2DDFF" stroke-width="2"/>
<line y1="-1" x2="6.18571" y2="-1" transform="matrix(0.234673 -0.972074 0.991809 0.127733 117.193 198.927)" stroke="#B2DDFF" stroke-width="2"/>
</g>
<defs>
<clipPath id="clip0_17_15564">
<rect width="200" height="200" rx="100" fill="white"/>
</clipPath>
</defs>
</svg>
