<svg width="28" height="28" viewBox="0 0 28 28" fill="none" xmlns="http://www.w3.org/2000/svg">
<path d="M18.6666 15.1668H15.1666C14.525 15.1668 14 15.6918 14 16.3335V19.8334C14 20.4751 14.525 21.0001 15.1666 21.0001H18.6666C19.3083 21.0001 19.8333 20.4751 19.8333 19.8334V16.3335C19.8333 15.6918 19.3083 15.1668 18.6666 15.1668ZM18.6666 3.50016V4.66682H9.3333V3.50016C9.3333 2.8585 8.8083 2.3335 8.16664 2.3335C7.52497 2.3335 6.99997 2.8585 6.99997 3.50016V4.66682H5.83331C4.53832 4.66682 3.51165 5.71682 3.51165 7.00015L3.49998 23.3334C3.49998 24.6168 4.53832 25.6668 5.83331 25.6668H22.1666C23.4499 25.6668 24.4999 24.6168 24.4999 23.3334V7.00015C24.4999 5.71682 23.4499 4.66682 22.1666 4.66682H20.9999V3.50016C20.9999 2.8585 20.4749 2.3335 19.8333 2.3335C19.1916 2.3335 18.6666 2.8585 18.6666 3.50016ZM20.9999 23.3334H6.99997C6.35831 23.3334 5.83331 22.8084 5.83331 22.1668V10.5001H22.1666V22.1668C22.1666 22.8084 21.6416 23.3334 20.9999 23.3334Z" fill="#6941C6"/>
</svg>
