<svg width="33" height="32" viewBox="0 0 33 32" fill="none" xmlns="http://www.w3.org/2000/svg">
<path d="M15.683 5.35033C14.4051 4.06901 12.7209 3.27268 10.9197 3.0981C9.11852 2.92353 7.31276 3.38162 5.81259 4.39369C4.31242 5.40575 3.2115 6.90862 2.69892 8.64415C2.18635 10.3797 2.29412 12.2395 3.00372 13.9042H8.18953L10.3706 10.0871C10.5997 9.68599 10.9334 9.35461 11.336 9.12828C11.7386 8.90195 12.1952 8.78917 12.6569 8.80195C13.1186 8.81473 13.5682 8.9526 13.9577 9.20086C14.3472 9.44911 14.662 9.79844 14.8685 10.2116L17.0731 14.6227L18.6877 12.4039C18.8931 12.1215 19.1543 11.8843 19.4552 11.7069C19.756 11.5296 20.09 11.4158 20.4365 11.3728C20.783 11.3297 21.1347 11.3583 21.4698 11.4566C21.8049 11.555 22.1162 11.7211 22.3844 11.9446L24.737 13.9042H30.4025C31.0646 12.2251 31.1282 10.3692 30.5828 8.64867C30.0373 6.92813 28.9161 5.44789 27.4075 4.45689C25.899 3.46589 24.0952 3.02459 22.2995 3.20719C20.5039 3.38979 18.8259 4.18516 17.5477 5.45954L16.6699 6.33728L15.684 5.35033H15.683ZM15.9249 28.3808L7.13931 19.0074H9.67149C10.1212 19.0072 10.563 18.8882 10.9519 18.6624C11.3408 18.4365 11.6632 18.1119 11.8863 17.7214L12.4374 16.7579L14.3868 20.6587C14.5827 21.0508 14.8763 21.3858 15.2392 21.6315C15.6022 21.8771 16.0224 22.0251 16.4592 22.0612C16.896 22.0973 17.3347 22.0203 17.7331 21.8376C18.1314 21.6549 18.476 21.3726 18.7337 21.018L21.2138 17.6091L22.1803 18.4154C22.6389 18.7979 23.2172 19.0073 23.8143 19.0074H26.3333L17.4089 28.3869C17.3131 28.4876 17.1977 28.5676 17.0699 28.622C16.9421 28.6765 16.8045 28.7043 16.6656 28.7037C16.5266 28.7031 16.3893 28.6742 16.2619 28.6187C16.1345 28.5632 16.0199 28.4822 15.9249 28.3808ZM13.4999 10.8964C13.4182 10.7328 13.294 10.5941 13.1403 10.4949C12.9866 10.3957 12.8091 10.3396 12.6263 10.3325C12.4436 10.3254 12.2622 10.3676 12.1013 10.4546C11.9404 10.5416 11.8059 10.6702 11.7117 10.827L8.94786 15.4352H3.06189C2.7912 15.4352 2.5316 15.5427 2.3402 15.7341C2.14879 15.9255 2.04126 16.1851 2.04126 16.4558C2.04126 16.7265 2.14879 16.9861 2.3402 17.1775C2.5316 17.3689 2.7912 17.4764 3.06189 17.4764H9.52554C9.70165 17.4764 9.87476 17.4308 10.028 17.344C10.1813 17.2573 10.3095 17.1324 10.4002 16.9814L12.5058 13.4715L15.7575 19.9739C15.8359 20.1306 15.9533 20.2645 16.0984 20.3627C16.2435 20.4609 16.4115 20.52 16.5861 20.5345C16.7607 20.549 16.9361 20.5182 17.0954 20.4452C17.2547 20.3723 17.3925 20.2595 17.4956 20.1178L20.9362 15.3862L23.1611 17.2396C23.3445 17.3925 23.5756 17.4763 23.8143 17.4764H29.9381C30.2088 17.4764 30.4684 17.3689 30.6598 17.1775C30.8512 16.9861 30.9587 16.7265 30.9587 16.4558C30.9587 16.1851 30.8512 15.9255 30.6598 15.7341C30.4684 15.5427 30.2088 15.4352 29.9381 15.4352H24.1838L21.4057 13.1204C21.2983 13.0309 21.1738 12.9645 21.0398 12.9251C20.9057 12.8857 20.765 12.8743 20.6264 12.8915C20.4877 12.9088 20.3541 12.9543 20.2338 13.0252C20.1134 13.0962 20.0089 13.1911 19.9268 13.3041L16.8322 17.5601L13.4999 10.8954V10.8964Z" fill="#FF3B30"/>
</svg>
