<svg width="18" height="18" viewBox="0 0 18 18" fill="none" xmlns="http://www.w3.org/2000/svg">
<path d="M4.5 7.5C4.5 6.8775 5.0025 6.375 5.625 6.375C6.2475 6.375 6.75 6.8775 6.75 7.5C6.75 8.1225 6.2475 8.625 5.625 8.625C5.0025 8.625 4.5 8.1225 4.5 7.5ZM8.25 13.5C9.9975 13.5 11.4825 12.405 12.0825 10.875H4.4175C5.0175 12.405 6.5025 13.5 8.25 13.5ZM10.875 8.625C11.4975 8.625 12 8.1225 12 7.5C12 6.8775 11.4975 6.375 10.875 6.375C10.2525 6.375 9.75 6.8775 9.75 7.5C9.75 8.1225 10.2525 8.625 10.875 8.625ZM15.75 1.125H14.25V2.625H12.75V4.125H14.25V5.625H15.75V4.125H17.25V2.625H15.75V1.125ZM14.25 9.375C14.25 12.69 11.565 15.375 8.25 15.375C4.935 15.375 2.25 12.69 2.25 9.375C2.25 6.06 4.935 3.375 8.25 3.375C9.345 3.375 10.365 3.675 11.25 4.185V2.505C10.3275 2.1 9.315 1.875 8.2425 1.875C4.1025 1.875 0.75 5.235 0.75 9.375C0.75 13.515 4.1025 16.875 8.2425 16.875C12.39 16.875 15.75 13.515 15.75 9.375C15.75 8.5875 15.6225 7.8375 15.3975 7.125H13.8C14.085 7.8225 14.25 8.58 14.25 9.375Z" fill="#667085"/>
</svg>
