<svg width="28" height="28" viewBox="0 0 28 28" fill="none" xmlns="http://www.w3.org/2000/svg">
<path d="M19.8333 2.33325C19.1916 2.33325 18.6666 2.85825 18.6666 3.49991V4.66658H9.3333V3.49991C9.3333 2.85825 8.8083 2.33325 8.16664 2.33325C7.52497 2.33325 6.99997 2.85825 6.99997 3.49991V4.66658H5.83331C4.53832 4.66658 3.51165 5.71658 3.51165 6.99991L3.49998 23.3332C3.49998 24.6165 4.53832 25.6665 5.83331 25.6665H22.1666C23.4499 25.6665 24.4999 24.6165 24.4999 23.3332V6.99991C24.4999 5.71658 23.4499 4.66658 22.1666 4.66658H20.9999V3.49991C20.9999 2.85825 20.4749 2.33325 19.8333 2.33325ZM22.1666 23.3332H5.83331V11.6666H22.1666V23.3332ZM12.8333 15.1665C12.8333 14.5249 13.3583 13.9999 14 13.9999C14.6416 13.9999 15.1666 14.5249 15.1666 15.1665C15.1666 15.8082 14.6416 16.3332 14 16.3332C13.3583 16.3332 12.8333 15.8082 12.8333 15.1665ZM8.16664 15.1665C8.16664 14.5249 8.69164 13.9999 9.3333 13.9999C9.97497 13.9999 10.5 14.5249 10.5 15.1665C10.5 15.8082 9.97497 16.3332 9.3333 16.3332C8.69164 16.3332 8.16664 15.8082 8.16664 15.1665ZM17.4999 15.1665C17.4999 14.5249 18.0249 13.9999 18.6666 13.9999C19.3083 13.9999 19.8333 14.5249 19.8333 15.1665C19.8333 15.8082 19.3083 16.3332 18.6666 16.3332C18.0249 16.3332 17.4999 15.8082 17.4999 15.1665ZM12.8333 19.8332C12.8333 19.1915 13.3583 18.6665 14 18.6665C14.6416 18.6665 15.1666 19.1915 15.1666 19.8332C15.1666 20.4749 14.6416 20.9999 14 20.9999C13.3583 20.9999 12.8333 20.4749 12.8333 19.8332ZM8.16664 19.8332C8.16664 19.1915 8.69164 18.6665 9.3333 18.6665C9.97497 18.6665 10.5 19.1915 10.5 19.8332C10.5 20.4749 9.97497 20.9999 9.3333 20.9999C8.69164 20.9999 8.16664 20.4749 8.16664 19.8332ZM17.4999 19.8332C17.4999 19.1915 18.0249 18.6665 18.6666 18.6665C19.3083 18.6665 19.8333 19.1915 19.8333 19.8332C19.8333 20.4749 19.3083 20.9999 18.6666 20.9999C18.0249 20.9999 17.4999 20.4749 17.4999 19.8332Z" fill="#FCFCFD"/>
</svg>
