<svg width="28" height="28" viewBox="0 0 28 28" fill="none" xmlns="http://www.w3.org/2000/svg">
<path d="M8.74997 25.9583C9.39164 25.9583 9.91664 25.4333 9.91664 24.7916V19.5416H11.0833C12.3666 19.5416 13.4166 18.4916 13.4166 17.2083V8.45834C14.0583 8.45834 14.5833 7.93334 14.5833 7.29167C14.5833 6.65001 14.0583 6.12501 13.4166 6.12501H9.91664V4.37501H10.5C11.1416 4.37501 11.6666 3.85002 11.6666 3.20835C11.6666 2.56669 11.1416 2.04169 10.5 2.04169H6.99998C6.35831 2.04169 5.83331 2.56669 5.83331 3.20835C5.83331 3.85002 6.35831 4.37501 6.99998 4.37501H7.58331V6.12501H4.08332C3.44165 6.12501 2.91666 6.65001 2.91666 7.29167C2.91666 7.93334 3.44165 8.45834 4.08332 8.45834V17.2083C4.08332 18.4916 5.13332 19.5416 6.41665 19.5416H7.58331V24.7916C7.58331 25.4333 8.10831 25.9583 8.74997 25.9583ZM11.0833 10.2083H9.04164C8.56331 10.2083 8.16664 10.605 8.16664 11.0833C8.16664 11.5617 8.56331 11.9583 9.04164 11.9583H11.0833V13.7083H9.04164C8.56331 13.7083 8.16664 14.105 8.16664 14.5833C8.16664 15.0617 8.56331 15.4583 9.04164 15.4583H11.0833V17.2083H6.41665V8.45834H11.0833V10.2083ZM23.3333 11.9583V11.375C23.9749 11.375 24.4999 10.85 24.4999 10.2083C24.4999 9.56667 23.9749 9.04167 23.3333 9.04167H17.4999C16.8583 9.04167 16.3333 9.56667 16.3333 10.2083C16.3333 10.85 16.8583 11.375 17.4999 11.375V11.9583C17.4999 12.5417 15.75 13.3117 15.75 15.4583V23.0416C15.75 24.325 16.8 25.375 18.0833 25.375H22.7499C24.0333 25.375 25.0833 24.325 25.0833 23.0416V15.4583C25.0833 13.3117 23.3333 12.5417 23.3333 11.9583ZM19.8333 11.9583V11.375H20.9999V11.9583C20.9999 13.825 22.7499 14.2917 22.7499 15.4583V16.0416H18.0833C18.0833 15.7966 18.0833 15.5867 18.0833 15.4583C18.0833 14.2917 19.8333 13.825 19.8333 11.9583ZM18.0833 23.0416C18.0833 23.0416 18.0833 22.3066 18.0833 21.2916H22.7499V23.0416H18.0833Z" fill="#027A48"/>
</svg>
