<svg width="24" height="24" viewBox="0 0 24 24" fill="none" xmlns="http://www.w3.org/2000/svg">
<path d="M20.2878 8.37L19.2878 6.64C19.0078 6.16 18.3978 6 17.9178 6.27L13.9978 8.54V4C13.9978 3.45 13.5478 3 12.9978 3H10.9978C10.4478 3 9.99776 3.45 9.99776 4V8.54L6.06776 6.27C5.58776 5.99 4.97776 6.16 4.70776 6.63L3.70776 8.36C3.42776 8.84 3.58776 9.46 4.06776 9.73L7.99776 12L4.06776 14.27C3.58776 14.55 3.42776 15.16 3.69776 15.64L4.69776 17.37C4.97776 17.85 5.58776 18.01 6.06776 17.74L9.99776 15.46V20C9.99776 20.55 10.4478 21 10.9978 21H12.9978C13.5478 21 13.9978 20.55 13.9978 20V15.46L17.9278 17.73C18.4078 18.01 19.0178 17.84 19.2978 17.36L20.2978 15.63C20.5778 15.15 20.4078 14.54 19.9278 14.26L15.9978 12L19.9278 9.73C20.4078 9.46 20.5678 8.84 20.2878 8.37Z" fill="#D92D20"/>
</svg>
