<svg width="28" height="28" viewBox="0 0 28 28" fill="none" xmlns="http://www.w3.org/2000/svg">
<path d="M22.75 14.0001C22.75 13.7318 22.7384 13.4751 22.715 13.2068L24.885 11.5618C25.3517 11.2118 25.48 10.5585 25.1884 10.0451L23.0067 6.27682C22.715 5.76349 22.085 5.55349 21.5484 5.78682L19.0401 6.84848C18.6084 6.54515 18.1534 6.27682 17.6751 6.05515L17.3367 3.36016C17.2667 2.77683 16.7651 2.3335 16.1817 2.3335H11.8301C11.2351 2.3335 10.7334 2.77683 10.6634 3.36016L10.3251 6.05515C9.84675 6.27682 9.39175 6.54515 8.96009 6.84848L6.45176 5.78682C5.9151 5.55349 5.2851 5.76349 4.99343 6.27682L2.81177 10.0568C2.5201 10.5701 2.64844 11.2118 3.1151 11.5735L5.2851 13.2185C5.26176 13.4751 5.2501 13.7318 5.2501 14.0001C5.2501 14.2685 5.26176 14.5251 5.2851 14.7935L3.1151 16.4385C2.64844 16.7885 2.5201 17.4418 2.81177 17.9551L4.99343 21.7234C5.2851 22.2368 5.9151 22.4468 6.45176 22.2134L8.96009 21.1518C9.39175 21.4551 9.84675 21.7234 10.3251 21.9451L10.6634 24.6401C10.7334 25.2234 11.2351 25.6668 11.8184 25.6668H16.1701C16.7534 25.6668 17.2551 25.2234 17.3251 24.6401L17.6634 21.9451C18.1417 21.7234 18.5967 21.4551 19.0284 21.1518L21.5367 22.2134C22.0734 22.4468 22.7034 22.2368 22.995 21.7234L25.1767 17.9551C25.4684 17.4418 25.34 16.8001 24.8734 16.4385L22.7034 14.7935C22.7384 14.5251 22.75 14.2685 22.75 14.0001ZM14.0467 18.0835C11.7951 18.0835 9.96342 16.2518 9.96342 14.0001C9.96342 11.7485 11.7951 9.91681 14.0467 9.91681C16.2984 9.91681 18.1301 11.7485 18.1301 14.0001C18.1301 16.2518 16.2984 18.0835 14.0467 18.0835Z" fill="#101828"/>
</svg>
