<svg width="28" height="28" viewBox="0 0 28 28" fill="none" xmlns="http://www.w3.org/2000/svg">
<path d="M22.1666 4.6665H17.5C16.8583 4.6665 16.3333 5.1915 16.3333 5.83317C16.3333 6.47483 16.8583 6.99983 17.5 6.99983H19.3433L14.7116 11.6315C13.685 10.9198 12.4366 10.4998 11.0833 10.4998C7.53665 10.4998 4.66666 13.3698 4.66666 16.9165C4.66666 20.4631 7.53665 23.3331 11.0833 23.3331C14.63 23.3331 17.5 20.4631 17.5 16.9165C17.5 15.5631 17.08 14.3148 16.3683 13.2765L20.9999 8.65649V10.4998C20.9999 11.1415 21.5249 11.6665 22.1666 11.6665C22.8083 11.6665 23.3333 11.1415 23.3333 10.4998V5.83317C23.3333 5.1915 22.8083 4.6665 22.1666 4.6665ZM11.0833 20.9998C8.83164 20.9998 6.99998 19.1681 6.99998 16.9165C6.99998 14.6648 8.83164 12.8331 11.0833 12.8331C13.335 12.8331 15.1666 14.6648 15.1666 16.9165C15.1666 19.1681 13.335 20.9998 11.0833 20.9998Z" fill="#0040DD"/>
</svg>
