<svg width="28" height="28" viewBox="0 0 28 28" fill="none" xmlns="http://www.w3.org/2000/svg">
<path d="M24.4999 2.57851C24.3483 2.57851 24.1966 2.63685 24.0916 2.75351L23.1699 3.67518C22.9366 3.90851 22.5749 3.90851 22.3416 3.67518L21.42 2.75351C21.1866 2.52018 20.825 2.52018 20.5916 2.75351L19.67 3.67518C19.4366 3.90851 19.075 3.90851 18.8416 3.67518L17.92 2.75351C17.6866 2.52018 17.325 2.52018 17.0916 2.75351L16.17 3.67518C15.9366 3.90851 15.575 3.90851 15.3416 3.67518L14.42 2.75351C14.1866 2.52018 13.825 2.52018 13.5916 2.75351L12.67 3.67518C12.4366 3.90851 12.075 3.90851 11.8416 3.67518L10.9083 2.74185C10.675 2.50851 10.3133 2.50851 10.08 2.74185L9.15832 3.67518C8.92498 3.90851 8.56332 3.90851 8.32999 3.67518L7.40832 2.74185C7.17499 2.50851 6.81332 2.50851 6.57999 2.74185L5.65833 3.67518C5.42499 3.90851 5.06333 3.90851 4.83 3.67518L3.90833 2.74185C3.80333 2.63685 3.65167 2.57851 3.5 2.57851V25.4334C3.65167 25.4334 3.80333 25.3751 3.90833 25.2584L4.83 24.3368C5.06333 24.1035 5.42499 24.1035 5.65833 24.3368L6.57999 25.2584C6.81332 25.4918 7.17499 25.4918 7.40832 25.2584L8.32999 24.3368C8.56332 24.1035 8.92498 24.1035 9.15832 24.3368L10.08 25.2584C10.3133 25.4918 10.675 25.4918 10.9083 25.2584L11.83 24.3368C12.0633 24.1035 12.425 24.1035 12.6583 24.3368L13.58 25.2584C13.8133 25.4918 14.175 25.4918 14.4083 25.2584L15.33 24.3368C15.5633 24.1035 15.925 24.1035 16.1583 24.3368L17.08 25.2584C17.3133 25.4918 17.675 25.4918 17.9083 25.2584L18.83 24.3368C19.0633 24.1035 19.425 24.1035 19.6583 24.3368L20.58 25.2584C20.8133 25.4918 21.175 25.4918 21.4083 25.2584L22.3299 24.3368C22.5633 24.1035 22.9249 24.1035 23.1583 24.3368L24.0799 25.2584C24.1966 25.3751 24.3483 25.4334 24.4883 25.4334V2.57851H24.4999ZM19.8333 19.8335H8.16665C7.52499 19.8335 6.99999 19.3085 6.99999 18.6668C6.99999 18.0251 7.52499 17.5001 8.16665 17.5001H19.8333C20.475 17.5001 21 18.0251 21 18.6668C21 19.3085 20.475 19.8335 19.8333 19.8335ZM19.8333 15.1668H8.16665C7.52499 15.1668 6.99999 14.6418 6.99999 14.0001C6.99999 13.3585 7.52499 12.8335 8.16665 12.8335H19.8333C20.475 12.8335 21 13.3585 21 14.0001C21 14.6418 20.475 15.1668 19.8333 15.1668ZM19.8333 10.5002H8.16665C7.52499 10.5002 6.99999 9.97516 6.99999 9.33349C6.99999 8.69183 7.52499 8.16683 8.16665 8.16683H19.8333C20.475 8.16683 21 8.69183 21 9.33349C21 9.97516 20.475 10.5002 19.8333 10.5002Z" fill="#039855"/>
</svg>
