<svg width="28" height="28" viewBox="0 0 28 28" fill="none" xmlns="http://www.w3.org/2000/svg">
<path d="M14 5.25012C8.16667 5.25012 3.18501 8.87845 1.16669 14.0001C3.18501 19.1218 8.16667 22.7501 14 22.7501C19.8333 22.7501 24.815 19.1218 26.8333 14.0001C24.815 8.87845 19.8333 5.25012 14 5.25012ZM14 19.8334C10.78 19.8334 8.16667 17.2201 8.16667 14.0001C8.16667 10.7801 10.78 8.16678 14 8.16678C17.22 8.16678 19.8333 10.7801 19.8333 14.0001C19.8333 17.2201 17.22 19.8334 14 19.8334ZM14 10.5001C12.0633 10.5001 10.5 12.0634 10.5 14.0001C10.5 15.9368 12.0633 17.5001 14 17.5001C15.9366 17.5001 17.5 15.9368 17.5 14.0001C17.5 12.0634 15.9366 10.5001 14 10.5001Z" fill="#0040DD"/>
</svg>
