<svg width="24" height="24" viewBox="0 0 24 24" fill="none" xmlns="http://www.w3.org/2000/svg">
<path d="M1.61035 12.0614C1.95035 12.5014 2.57035 12.5814 3.01035 12.2514L4.00035 11.4914V19.8714C4.00035 20.4214 4.45035 20.8714 5.00035 20.8714H19.0004C19.5504 20.8714 20.0004 20.4214 20.0004 19.8714V11.4914L20.9904 12.2514C21.4304 12.5914 22.0604 12.5014 22.3904 12.0614C22.7304 11.6214 22.6404 10.9914 22.2004 10.6614L12.6004 3.33141C12.2404 3.06141 11.7404 3.06141 11.3904 3.33141L1.79035 10.6614C1.36035 11.0014 1.27035 11.6314 1.61035 12.0614ZM8.00035 14.8714C7.45035 14.8714 7.00035 14.4214 7.00035 13.8714C7.00035 13.3214 7.45035 12.8714 8.00035 12.8714C8.55035 12.8714 9.00035 13.3214 9.00035 13.8714C9.00035 14.4214 8.55035 14.8714 8.00035 14.8714ZM12.0004 14.8714C11.4504 14.8714 11.0004 14.4214 11.0004 13.8714C11.0004 13.3214 11.4504 12.8714 12.0004 12.8714C12.5504 12.8714 13.0004 13.3214 13.0004 13.8714C13.0004 14.4214 12.5504 14.8714 12.0004 14.8714ZM16.0004 14.8714C15.4504 14.8714 15.0004 14.4214 15.0004 13.8714C15.0004 13.3214 15.4504 12.8714 16.0004 12.8714C16.5504 12.8714 17.0004 13.3214 17.0004 13.8714C17.0004 14.4214 16.5504 14.8714 16.0004 14.8714Z" fill="#0040DD"/>
</svg>
