<svg width="20" height="20" viewBox="0 0 20 20" fill="none" xmlns="http://www.w3.org/2000/svg">
<path d="M10.5982 1.68985C5.52319 1.33152 1.33152 5.52319 1.68985 10.5982C1.98985 15.0065 5.83985 18.3315 10.2565 18.3315H13.3315C13.7899 18.3315 14.1649 17.9565 14.1649 17.4982C14.1649 17.0399 13.7899 16.6649 13.3315 16.6649H10.2732C7.16485 16.6649 4.31485 14.6482 3.53985 11.6399C2.29819 6.80652 6.79818 2.29819 11.6315 3.54819C14.6482 4.31485 16.6649 7.16485 16.6649 10.2732V11.1899C16.6649 11.8482 16.0732 12.4982 15.4149 12.4982C14.7565 12.4982 14.1649 11.8482 14.1649 11.1899V10.1482C14.1649 8.05652 12.6815 6.17319 10.6149 5.88152C7.78152 5.47319 5.38985 7.92319 5.89819 10.7732C6.18152 12.3649 7.42319 13.6815 8.99819 14.0565C10.5315 14.4149 11.9899 13.9232 12.9482 12.9482C13.6899 13.9649 15.1732 14.4982 16.5315 13.9565C17.6482 13.5149 18.3315 12.3732 18.3315 11.1732V10.2649C18.3315 5.83985 15.0065 1.98985 10.5982 1.68985ZM9.99819 12.4982C8.61485 12.4982 7.49819 11.3815 7.49819 9.99819C7.49819 8.61485 8.61485 7.49819 9.99819 7.49819C11.3815 7.49819 12.4982 8.61485 12.4982 9.99819C12.4982 11.3815 11.3815 12.4982 9.99819 12.4982Z" fill="#98A2B3"/>
</svg>
