<svg width="262" height="292" viewBox="0 0 262 292" fill="none" xmlns="http://www.w3.org/2000/svg">
<path d="M19.1062 8.00002L19.8962 6.25002L21.6462 5.46002C22.0362 5.28002 22.0362 4.73002 21.6462 4.55002L19.8962 3.76002L19.1062 2.00002C18.9262 1.61002 18.3762 1.61002 18.1962 2.00002L17.4062 3.75002L15.6462 4.54002C15.2562 4.72002 15.2562 5.27002 15.6462 5.45002L17.3962 6.24002L18.1862 8.00002C18.3662 8.39002 18.9262 8.39002 19.1062 8.00002ZM11.1462 9.50002L9.55625 6.00002C9.20625 5.22002 8.08625 5.22002 7.73625 6.00002L6.14625 9.50002L2.64625 11.09C1.86625 11.45 1.86625 12.56 2.64625 12.91L6.14625 14.5L7.73625 18C8.09625 18.78 9.20625 18.78 9.55625 18L11.1462 14.5L14.6462 12.91C15.4262 12.55 15.4262 11.44 14.6462 11.09L11.1462 9.50002ZM18.1862 16L17.3962 17.75L15.6462 18.54C15.2562 18.72 15.2562 19.27 15.6462 19.45L17.3962 20.24L18.1862 22C18.3662 22.39 18.9162 22.39 19.0962 22L19.8862 20.25L21.6462 19.46C22.0362 19.28 22.0362 18.73 21.6462 18.55L19.8962 17.76L19.1062 16C18.9262 15.61 18.3662 15.61 18.1862 16Z" fill="#84CAFF"/>
<path d="M19.1062 276L19.8962 274.25L21.6462 273.46C22.0362 273.28 22.0362 272.73 21.6462 272.55L19.8962 271.76L19.1062 270C18.9262 269.61 18.3762 269.61 18.1962 270L17.4062 271.75L15.6462 272.54C15.2562 272.72 15.2562 273.27 15.6462 273.45L17.3962 274.24L18.1862 276C18.3662 276.39 18.9262 276.39 19.1062 276ZM11.1462 277.5L9.55625 274C9.20625 273.22 8.08625 273.22 7.73625 274L6.14625 277.5L2.64625 279.09C1.86625 279.45 1.86625 280.56 2.64625 280.91L6.14625 282.5L7.73625 286C8.09625 286.78 9.20625 286.78 9.55625 286L11.1462 282.5L14.6462 280.91C15.4262 280.55 15.4262 279.44 14.6462 279.09L11.1462 277.5ZM18.1862 284L17.3962 285.75L15.6462 286.54C15.2562 286.72 15.2562 287.27 15.6462 287.45L17.3962 288.24L18.1862 290C18.3662 290.39 18.9162 290.39 19.0962 290L19.8862 288.25L21.6462 287.46C22.0362 287.28 22.0362 286.73 21.6462 286.55L19.8962 285.76L19.1062 284C18.9262 283.61 18.3662 283.61 18.1862 284Z" fill="#84CAFF"/>
<path d="M257.106 8.00002L257.896 6.25002L259.646 5.46002C260.036 5.28002 260.036 4.73002 259.646 4.55002L257.896 3.76002L257.106 2.00002C256.926 1.61002 256.376 1.61002 256.196 2.00002L255.406 3.75002L253.646 4.54002C253.256 4.72002 253.256 5.27002 253.646 5.45002L255.396 6.24002L256.186 8.00002C256.366 8.39002 256.926 8.39002 257.106 8.00002ZM249.146 9.50002L247.556 6.00002C247.206 5.22002 246.086 5.22002 245.736 6.00002L244.146 9.50002L240.646 11.09C239.866 11.45 239.866 12.56 240.646 12.91L244.146 14.5L245.736 18C246.096 18.78 247.206 18.78 247.556 18L249.146 14.5L252.646 12.91C253.426 12.55 253.426 11.44 252.646 11.09L249.146 9.50002ZM256.186 16L255.396 17.75L253.646 18.54C253.256 18.72 253.256 19.27 253.646 19.45L255.396 20.24L256.186 22C256.366 22.39 256.916 22.39 257.096 22L257.886 20.25L259.646 19.46C260.036 19.28 260.036 18.73 259.646 18.55L257.896 17.76L257.106 16C256.926 15.61 256.366 15.61 256.186 16Z" fill="#84CAFF"/>
<path d="M257.106 276L257.896 274.25L259.646 273.46C260.036 273.28 260.036 272.73 259.646 272.55L257.896 271.76L257.106 270C256.926 269.61 256.376 269.61 256.196 270L255.406 271.75L253.646 272.54C253.256 272.72 253.256 273.27 253.646 273.45L255.396 274.24L256.186 276C256.366 276.39 256.926 276.39 257.106 276ZM249.146 277.5L247.556 274C247.206 273.22 246.086 273.22 245.736 274L244.146 277.5L240.646 279.09C239.866 279.45 239.866 280.56 240.646 280.91L244.146 282.5L245.736 286C246.096 286.78 247.206 286.78 247.556 286L249.146 282.5L252.646 280.91C253.426 280.55 253.426 279.44 252.646 279.09L249.146 277.5ZM256.186 284L255.396 285.75L253.646 286.54C253.256 286.72 253.256 287.27 253.646 287.45L255.396 288.24L256.186 290C256.366 290.39 256.916 290.39 257.096 290L257.886 288.25L259.646 287.46C260.036 287.28 260.036 286.73 259.646 286.55L257.896 285.76L257.106 284C256.926 283.61 256.366 283.61 256.186 284Z" fill="#84CAFF"/>
</svg>
