<svg width="28" height="28" viewBox="0 0 28 28" fill="none" xmlns="http://www.w3.org/2000/svg">
<path d="M14 6.4167C16.2516 6.4167 18.0833 8.24836 18.0833 10.5C18.0833 12.7517 16.2516 14.5833 14 14.5833C11.7483 14.5833 9.91664 12.7517 9.91664 10.5C9.91664 8.24836 11.7483 6.4167 14 6.4167ZM15.1666 16.8117C18.1533 16.2633 20.4166 13.65 20.4166 10.5C20.4166 6.95337 17.5466 4.08337 14 4.08337C10.4533 4.08337 7.58331 6.95337 7.58331 10.5C7.58331 13.65 9.84664 16.2633 12.8333 16.8117V19.25H11.6666C11.025 19.25 10.5 19.775 10.5 20.4167C10.5 21.0583 11.025 21.5833 11.6666 21.5833H12.8333V22.75C12.8333 23.3917 13.3583 23.9167 14 23.9167C14.6416 23.9167 15.1666 23.3917 15.1666 22.75V21.5833H16.3333C16.975 21.5833 17.5 21.0583 17.5 20.4167C17.5 19.775 16.975 19.25 16.3333 19.25H15.1666V16.8117Z" fill="#C11574"/>
</svg>
