<svg width="28" height="28" viewBox="0 0 28 28" fill="none" xmlns="http://www.w3.org/2000/svg">
<path d="M5.25 11.1038C5.25 7.76366 7.47366 4.66675 10.5181 4.66675C12.6309 4.66675 14.1989 6.05624 15.1666 8.02732C16.1344 6.05624 17.7024 4.66675 19.8152 4.66675C22.8602 4.66675 25.0833 7.76424 25.0833 11.1038C25.0833 18.2514 15.1666 23.3334 15.1666 23.3334C15.1666 23.3334 8.4869 20.1175 6.09174 14.8424H12.0079L12.9482 13.1711L14.0466 17.0153L16.6191 13.7084H19.8333V12.5417H16.0475L14.5366 14.4842L13.3017 10.1623L11.3254 13.6757H5.64666C5.77033 14.0753 5.92024 14.4644 6.09174 14.8424H3.5V13.6757H5.64666C5.38534 12.8432 5.2516 11.9758 5.25 11.1032V11.1038Z" fill="#0040DD"/>
</svg>
