<svg width="28" height="28" viewBox="0 0 28 28" fill="none" xmlns="http://www.w3.org/2000/svg">
<path d="M20.4399 12.8334C18.6083 12.8334 17.0099 11.7834 16.2399 10.2551L15.3183 8.30673C15.3066 8.28339 14.735 7.00006 13.23 7.00006C9.00664 7.00006 5.83331 19.4717 5.83331 22.1667H8.74997L6.99998 24.5C6.61498 25.0133 6.71998 25.7483 7.23331 26.1333C7.74664 26.5183 8.48164 26.4133 8.86664 25.9L11.6666 22.1667H14V25.6667C14 26.3083 14.525 26.8333 15.1666 26.8333C15.8083 26.8333 16.3333 26.3083 16.3333 25.6667V22.505C16.3333 22.2484 16.2866 22.0034 16.2166 21.7584L14 15.1667L14.5716 12.005C15.5166 13.44 16.9633 14.5017 18.6666 14.945V15.1667C18.6666 15.4934 18.9233 15.75 19.2499 15.75C19.5766 15.75 19.8333 15.4934 19.8333 15.1667V14.5834C19.8333 14.2567 20.0899 14 20.4166 14C20.7433 14 20.9999 14.2567 20.9999 14.5834V26.25C20.9999 26.5767 21.2566 26.8333 21.5833 26.8333C21.9099 26.8333 22.1666 26.5767 22.1666 26.25V14.5834C22.1666 13.6617 21.4433 12.8334 20.4399 12.8334Z" fill="#363F72"/>
<path d="M12.3666 3.39508C12.2966 3.61674 12.25 3.83841 12.25 4.08341C12.25 5.36674 13.3 6.41673 14.5833 6.41673C15.8666 6.41673 16.9166 5.36674 16.9166 4.08341C16.9166 2.80008 15.8666 1.75008 14.5833 1.75008C14.3383 1.75008 14.1166 1.79675 13.895 1.86675C13.72 1.45841 13.3116 1.16675 12.8333 1.16675C12.1916 1.16675 11.6666 1.69175 11.6666 2.33341C11.6666 2.81174 11.9583 3.22008 12.3666 3.39508Z" fill="#363F72"/>
</svg>
