<svg width="24" height="24" viewBox="0 0 24 24" fill="none" xmlns="http://www.w3.org/2000/svg">
<path d="M21 1.99951H13C11.9 1.99951 11 2.89951 11 3.99951V7.49951H12.5C13.6 7.49951 14.5 8.39951 14.5 9.49951V14.4495C15.54 14.9295 16.74 15.1295 18 14.9195C20.93 14.4295 23 11.7495 23 8.77951V3.99951C23 2.89951 22.1 1.99951 21 1.99951ZM14 6.49951C14 5.94951 14.45 5.49951 15 5.49951C15.55 5.49951 16 5.94951 16 6.49951C16 7.04951 15.55 7.49951 15 7.49951C14.45 7.49951 14 7.04951 14 6.49951ZM18.85 10.8795H15.13C14.75 10.8795 14.5 10.4695 14.69 10.1295C15.08 9.46951 15.96 8.99951 16.99 8.99951C18.02 8.99951 18.9 9.46951 19.29 10.1395C19.48 10.4695 19.23 10.8795 18.85 10.8795ZM19 7.49951C18.45 7.49951 18 7.04951 18 6.49951C18 5.94951 18.45 5.49951 19 5.49951C19.55 5.49951 20 5.94951 20 6.49951C20 7.04951 19.55 7.49951 19 7.49951Z" fill="#444CE7"/>
<path d="M11 8.99951H3C1.9 8.99951 1 9.89951 1 10.9995V15.7895C1 18.8395 3.19 21.5595 6.21 21.9495C9.87 22.4195 13 19.5695 13 15.9995V10.9995C13 9.89951 12.1 8.99951 11 8.99951ZM4 13.4995C4 12.9495 4.45 12.4995 5 12.4995C5.55 12.4995 6 12.9495 6 13.4995C6 14.0495 5.55 14.4995 5 14.4995C4.45 14.4995 4 14.0495 4 13.4995ZM9.3 16.7495C8.92 17.4195 8.03 17.8895 7 17.8895C5.97 17.8895 5.09 17.4195 4.7 16.7495C4.51 16.4095 4.76 15.9995 5.14 15.9995H8.86C9.24 15.9995 9.49 16.4095 9.3 16.7495ZM9 14.4995C8.45 14.4995 8 14.0495 8 13.4995C8 12.9495 8.45 12.4995 9 12.4995C9.55 12.4995 10 12.9495 10 13.4995C10 14.0495 9.55 14.4995 9 14.4995Z" fill="#444CE7"/>
</svg>
