<svg width="28" height="28" viewBox="0 0 28 28" fill="none" xmlns="http://www.w3.org/2000/svg">
<path d="M5.95516 5.83308H12.9551C13.5968 5.83308 14.1218 5.30808 14.1218 4.66642C14.1218 4.02475 13.5968 3.49975 12.9551 3.49975H5.95516C4.67183 3.49975 3.62183 4.54975 3.62183 5.83308V22.1664C3.62183 23.4497 4.67183 24.4997 5.95516 24.4997H12.9551C13.5968 24.4997 14.1218 23.9747 14.1218 23.333C14.1218 22.6914 13.5968 22.1664 12.9551 22.1664H5.95516V5.83308Z" fill="#D92D20"/>
<path d="M24.2134 13.5914L20.9585 10.3364C20.5851 9.96307 19.9551 10.2197 19.9551 10.7447V12.8331H11.7885C11.1468 12.8331 10.6218 13.3581 10.6218 13.9997C10.6218 14.6414 11.1468 15.1664 11.7885 15.1664H19.9551V17.2547C19.9551 17.7797 20.5851 18.0364 20.9468 17.663L24.2018 14.4081C24.4351 14.1864 24.4351 13.8131 24.2134 13.5914Z" fill="#D92D20"/>
</svg>
