<svg width="28" height="28" viewBox="0 0 28 28" fill="none" xmlns="http://www.w3.org/2000/svg">
<mask id="mask0_177_2645" style="mask-type:alpha" maskUnits="userSpaceOnUse" x="1" y="1" width="26" height="26">
<path fill-rule="evenodd" clip-rule="evenodd" d="M7.65158 2.91663H8.16842C10.8902 3.31912 11.6282 4.86379 14 4.86379C16.3718 4.86379 17.1097 3.31912 19.8321 2.91663H20.125C20.8527 2.91663 21.5733 3.05996 22.2457 3.33846C22.918 3.61695 23.5289 4.02515 24.0435 4.53974C24.5581 5.05433 24.9663 5.66523 25.2448 6.33758C25.5233 7.00992 25.6666 7.73054 25.6666 8.45828V8.82344C25.6666 10.5169 23.8641 12.45 23.3333 14.2817C22.7704 16.2265 22.3848 17.8167 22.2716 19.4797C22.0062 23.377 20.6774 25.0832 19.25 25.0832C17.1185 25.0832 15.2261 16.3478 14.0367 16.3478C12.8467 16.3478 10.4872 25.0832 8.75 25.0832C7.69009 25.0832 6.31751 24.4561 5.80184 19.4797C5.59651 17.4999 5.25001 16.2988 4.66668 14.2817C4.15335 12.5083 2.42202 10.3897 2.33335 8.48803C2.2999 7.76882 2.41268 7.0503 2.66485 6.37592C2.91703 5.70155 3.30337 5.08533 3.8005 4.56453C4.29764 4.04372 4.89524 3.62917 5.55717 3.34592C6.2191 3.06268 6.9316 2.91664 7.65158 2.91663Z" fill="white" stroke="white" stroke-width="2.31917"/>
<path d="M9.03119 7.27019L18.6672 10.377M9.03119 10.377L18.6672 7.27019" stroke="black" stroke-width="2.31917" stroke-linecap="round"/>
</mask>
<g mask="url(#mask0_177_2645)">
<path d="M0 0H27.9999V27.9999H0V0Z" fill="#0040DD"/>
</g>
</svg>
