<svg width="20" height="20" viewBox="0 0 20 20" fill="none" xmlns="http://www.w3.org/2000/svg">
<path d="M10.0001 1.6665C5.40008 1.6665 1.66675 5.39984 1.66675 9.99984C1.66675 14.5998 5.40008 18.3332 10.0001 18.3332C14.6001 18.3332 18.3334 14.5998 18.3334 9.99984C18.3334 5.39984 14.6001 1.6665 10.0001 1.6665ZM10.0001 4.1665C11.3834 4.1665 12.5001 5.28317 12.5001 6.6665C12.5001 8.04984 11.3834 9.1665 10.0001 9.1665C8.61675 9.1665 7.50008 8.04984 7.50008 6.6665C7.50008 5.28317 8.61675 4.1665 10.0001 4.1665ZM10.0001 15.9998C7.91675 15.9998 6.07508 14.9332 5.00008 13.3165C5.02508 11.6582 8.33342 10.7498 10.0001 10.7498C11.6584 10.7498 14.9751 11.6582 15.0001 13.3165C13.9251 14.9332 12.0834 15.9998 10.0001 15.9998Z" fill="#667085"/>
</svg>
