<svg width="24" height="24" viewBox="0 0 24 24" fill="none" xmlns="http://www.w3.org/2000/svg">
<path d="M15.9766 14.4713H15.1866L14.9066 14.2013C16.1066 12.8013 16.7266 10.8913 16.3866 8.86133C15.9166 6.08133 13.5966 3.86133 10.7966 3.52133C6.56656 3.00133 3.00656 6.56133 3.52656 10.7913C3.86656 13.5913 6.08656 15.9113 8.86656 16.3813C10.8966 16.7213 12.8066 16.1013 14.2066 14.9013L14.4766 15.1813V15.9713L18.7266 20.2213C19.1366 20.6313 19.8066 20.6313 20.2166 20.2213C20.6266 19.8113 20.6266 19.1413 20.2166 18.7313L15.9766 14.4713ZM9.97656 14.4713C7.48656 14.4713 5.47656 12.4613 5.47656 9.97133C5.47656 7.48133 7.48656 5.47133 9.97656 5.47133C12.4666 5.47133 14.4766 7.48133 14.4766 9.97133C14.4766 12.4613 12.4666 14.4713 9.97656 14.4713Z" fill="#667085"/>
</svg>
