<svg width="28" height="28" viewBox="0 0 28 28" fill="none" xmlns="http://www.w3.org/2000/svg">
<path fill-rule="evenodd" clip-rule="evenodd" d="M19.7365 8.05592C19.7365 10.0748 19.2348 12.708 18.4631 12.3084C18.1475 13.339 17.485 14.2286 16.588 14.8261C15.691 15.4237 14.6148 15.6924 13.5422 15.5866C12.4696 15.4808 11.4666 15.007 10.7037 14.2457C9.94074 13.4844 9.4648 12.4825 9.35668 11.4101C8.59076 10.0702 7.58626 7.38509 10.1687 5.29209C10.2153 5.27693 10.2433 5.15093 10.2853 4.96543C10.4452 4.26368 10.7993 2.70385 13.0328 3.00193C14.7554 3.23118 19.7365 4.12076 19.7365 8.0565V8.05592ZM17.5163 9.32875C17.5163 9.32875 17.2527 10.0999 17.5 10.9592C17.4968 11.8753 17.1345 12.7537 16.4908 13.4057C15.8472 14.0577 14.9735 14.4314 14.0575 14.4464C13.1414 14.4615 12.256 14.1167 11.5913 13.4862C10.9266 12.8557 10.5356 11.9897 10.5023 11.0741C10.5869 10.7532 10.5869 10.2102 10.5863 9.60642C10.5858 8.51734 10.5846 7.23226 11.0833 6.70842C14.5769 9.03533 17.5163 9.32875 17.5163 9.32875Z" fill="#0040DD"/>
<path d="M7.58332 21C7.58332 20.3688 7.91757 19.8158 8.41924 19.5078C8.40013 19.4352 8.38224 19.3623 8.36557 19.2891C8.27705 18.8906 8.20794 18.488 8.15849 18.0827C8.10837 17.6945 8.07819 17.3039 8.06807 16.9126C5.60583 17.8792 3.5 19.5638 3.5 21.3325V24.5H24.4999V21.3325C24.4999 19.6385 22.5691 18.0221 20.2428 17.0392V17.0555C20.2533 17.4113 20.2335 17.8197 20.195 18.2122C20.16 18.5762 20.108 18.9391 20.0456 19.25H20.4166C20.5249 19.25 20.6311 19.2803 20.7232 19.3372C20.8153 19.3942 20.8897 19.4757 20.9381 19.5726L21.5215 20.7392C21.5623 20.8203 21.5833 20.9096 21.5833 21V22.1666C21.5833 22.3214 21.5218 22.4697 21.4124 22.5791C21.303 22.6885 21.1547 22.75 21 22.75H19.8333V21.5833H20.4166V21.1377L20.0561 20.4167H18.4438L18.0833 21.1377V21.5833H18.6666V22.75H17.5C17.3453 22.75 17.1969 22.6885 17.0875 22.5791C16.9781 22.4697 16.9166 22.3214 16.9166 22.1666V21C16.9166 20.9096 16.9376 20.8203 16.9785 20.7392L17.5618 19.5726C17.6102 19.4757 17.6846 19.3942 17.7767 19.3372C17.8688 19.2803 17.975 19.25 18.0833 19.25H18.8504C18.8632 19.1998 18.876 19.1444 18.8889 19.0832C18.9472 18.8084 18.9991 18.4602 19.0341 18.1002C19.0691 17.7397 19.0855 17.3822 19.0767 17.0882C19.0745 16.9664 19.065 16.8448 19.0481 16.7242C19.0353 16.6413 19.0225 16.6034 19.0201 16.5952C19.0195 16.5935 19.019 16.5929 19.0201 16.5941L19.0219 16.5935C18.7124 16.4973 18.3993 16.4131 18.0833 16.3409C17.7899 16.2738 17.4865 16.6775 17.3541 16.9301H10.5C10.4829 16.8976 10.4662 16.8649 10.4498 16.8321C10.3261 16.5859 10.1739 16.282 9.91665 16.3409C9.69207 16.3917 9.46748 16.45 9.2429 16.5142C9.23566 16.6165 9.23255 16.719 9.23357 16.8216C9.2359 17.1442 9.26682 17.5391 9.3164 17.9381C9.36598 18.3359 9.43307 18.7232 9.50307 19.0289C9.5229 19.117 9.54273 19.1963 9.5614 19.2646C9.8949 19.3084 10.2087 19.4474 10.4652 19.665C10.7218 19.8826 10.9102 20.1695 11.0079 20.4913C11.1056 20.8132 11.1084 21.1564 11.0161 21.4798C10.9238 21.8033 10.7403 22.0933 10.4874 22.3151C10.2346 22.537 9.92315 22.6812 9.59043 22.7306C9.25772 22.7801 8.91781 22.7326 8.61139 22.5938C8.30498 22.455 8.04505 22.2309 7.86272 21.9482C7.68039 21.6656 7.58339 21.3364 7.58332 21Z" fill="#0040DD"/>
<path d="M9.91666 21.0001C9.91666 21.3349 9.64716 21.5922 9.33333 21.5922C9.0195 21.5922 8.75 21.3355 8.75 21.0001C8.75 20.6653 9.0195 20.408 9.33333 20.408C9.64716 20.408 9.91666 20.6647 9.91666 21.0001Z" fill="#0040DD"/>
</svg>
