<svg width="15" height="18" viewBox="0 0 15 18" fill="none" xmlns="http://www.w3.org/2000/svg">
<path fill-rule="evenodd" clip-rule="evenodd" d="M4.19299 17.3898L4.49478 15.4085L3.82249 15.3923H0.612134L2.84322 0.770776C2.85017 0.7265 2.87264 0.685399 2.90545 0.65616C2.93843 0.626922 2.98046 0.610882 3.02442 0.610882H8.43757C10.2348 0.610882 11.475 0.997333 12.1224 1.76021C12.4259 2.11809 12.6193 2.49218 12.7129 2.90369C12.811 3.33559 12.8126 3.85152 12.7169 4.48091L12.71 4.52669V4.93001L13.0135 5.10778C13.2691 5.24796 13.4723 5.40836 13.6281 5.59197C13.8877 5.89806 14.0557 6.28702 14.1266 6.74799C14.2 7.22215 14.1758 7.78654 14.0557 8.42545C13.9172 9.16025 13.6933 9.80033 13.3908 10.324C13.1128 10.8065 12.7585 11.2068 12.3377 11.5169C11.936 11.8116 11.4588 12.0353 10.9192 12.1785C10.3963 12.3192 9.80011 12.3902 9.14624 12.3902H8.72498C8.42383 12.3902 8.13124 12.5023 7.90154 12.7033C7.67119 12.9085 7.51892 13.1888 7.4722 13.4954L7.44036 13.6739L6.90708 17.1663L6.88299 17.2944C6.87652 17.335 6.86553 17.3553 6.84937 17.369C6.83498 17.3815 6.81429 17.3898 6.79408 17.3898H4.19299Z" fill="#28356A"/>
<path fill-rule="evenodd" clip-rule="evenodd" d="M13.3011 4.57311C13.2851 4.67987 13.2665 4.78897 13.2458 4.90108C12.5319 8.6894 10.0896 9.99812 6.97039 9.99812H5.38219C5.00069 9.99812 4.67917 10.2843 4.61985 10.6733L3.5764 17.5143C3.53777 17.7697 3.72819 17.9998 3.97745 17.9998H6.79435C7.12784 17.9998 7.41121 17.7494 7.46374 17.4094L7.49139 17.2615L8.02176 13.7828L8.05586 13.592C8.10775 13.2508 8.39177 13.0002 8.72526 13.0002H9.14651C11.8756 13.0002 14.0122 11.855 14.6366 8.54087C14.8973 7.15646 14.7624 6.00045 14.0721 5.18745C13.8633 4.94235 13.6042 4.73885 13.3011 4.57311Z" fill="#298FC2"/>
<path fill-rule="evenodd" clip-rule="evenodd" d="M12.554 4.2656C12.4449 4.23268 12.3324 4.20294 12.2169 4.17604C12.1009 4.14981 11.9821 4.12659 11.8597 4.1062C11.4315 4.0347 10.9622 4.00078 10.4596 4.00078H6.21684C6.11225 4.00078 6.013 4.02517 5.92425 4.06928C5.7285 4.16652 5.58317 4.35799 5.54794 4.5924L4.64529 10.5013L4.61942 10.6735C4.67875 10.2846 5.00027 9.99837 5.38176 9.99837H6.96996C10.0891 9.99837 12.5315 8.68898 13.2453 4.90133C13.2667 4.78922 13.2846 4.68012 13.3006 4.57335C13.1201 4.47428 12.9245 4.38957 12.7138 4.31739C12.6618 4.29951 12.6081 4.2823 12.554 4.2656Z" fill="#22284F"/>
<path fill-rule="evenodd" clip-rule="evenodd" d="M5.54824 4.5923C5.58348 4.35789 5.7288 4.16642 5.92455 4.06985C6.01395 4.02557 6.11255 4.00118 6.21714 4.00118H10.4599C10.9625 4.00118 11.4318 4.03526 11.86 4.10677C11.9824 4.12699 12.1012 4.15038 12.2172 4.17661C12.3327 4.20334 12.4452 4.23325 12.5543 4.266C12.6084 4.2827 12.6621 4.30008 12.7146 4.31729C12.9253 4.38947 13.121 4.47484 13.3016 4.57325C13.514 3.17331 13.2998 2.22013 12.5675 1.35701C11.7601 0.406667 10.303 0 8.43836 0H3.02505C2.64421 0 2.31929 0.286204 2.26045 0.67583L0.00577026 15.4477C-0.0386833 15.7399 0.179381 16.0035 0.464531 16.0035H3.80647L5.54824 4.5923Z" fill="#28356A"/>
</svg>
