<svg width="28" height="28" viewBox="0 0 28 28" fill="none" xmlns="http://www.w3.org/2000/svg">
<path d="M14.6781 2.64676C14.6008 2.64068 14.5232 2.65579 14.4539 2.69048C14.3845 2.72517 14.3259 2.77812 14.2843 2.84364C13.1578 4.54988 13.125 6.11394 13.125 6.12488C13.1232 6.25608 13.1513 6.38596 13.2072 6.50468C13.263 6.62339 13.3452 6.72783 13.4475 6.81005C13.5497 6.89227 13.6694 6.95013 13.7973 6.97923C13.9253 7.00833 14.0581 7.00791 14.1859 6.978C14.5906 6.90144 14.864 6.51863 14.875 6.103C14.879 5.98271 14.9074 5.8645 14.9586 5.75558C15.0098 5.64665 15.0827 5.54931 15.1728 5.46947C15.2628 5.38964 15.3682 5.329 15.4825 5.29124C15.5968 5.25349 15.7176 5.23941 15.8375 5.24988C16.0578 5.27691 16.2603 5.38469 16.4057 5.55238C16.5512 5.72007 16.6293 5.93575 16.625 6.15769C16.6228 6.50241 16.5528 6.84333 16.4189 7.16098C16.285 7.47864 16.0898 7.76681 15.8445 8.00904C15.5992 8.25127 15.3087 8.44281 14.9893 8.57274C14.67 8.70267 14.3283 8.76843 13.9836 8.76628C13.6388 8.76412 13.2979 8.69409 12.9803 8.56018C12.6626 8.42628 12.3744 8.23111 12.1322 7.98583C11.643 7.49048 11.3706 6.82107 11.375 6.12488C11.375 6.05925 11.3859 4.94363 11.9656 3.49989C11.9956 3.42574 12.0047 3.34479 11.9919 3.26583C11.9792 3.18687 11.945 3.11293 11.8931 3.05204C11.8412 2.99115 11.7737 2.94564 11.6977 2.92047C11.6218 2.8953 11.5404 2.89142 11.4625 2.90926C8.88518 3.5021 6.59464 4.97361 4.98403 7.07118C3.37343 9.16876 2.54322 11.7616 2.63593 14.4045C2.84374 20.4311 7.78748 25.2764 13.814 25.3748C16.7873 25.4227 19.6612 24.3043 21.82 22.2592C23.9788 20.2142 25.2509 17.405 25.3639 14.4335C25.4768 11.4619 24.4217 8.56429 22.4244 6.36121C20.4271 4.15813 17.6464 2.82478 14.6781 2.64676ZM8.74998 13.9999C8.74998 13.7403 8.82695 13.4865 8.97117 13.2707C9.11539 13.0548 9.32038 12.8866 9.5602 12.7873C9.80003 12.6879 10.0639 12.6619 10.3185 12.7126C10.5731 12.7632 10.807 12.8882 10.9905 13.0718C11.1741 13.2553 11.2991 13.4892 11.3498 13.7438C11.4004 13.9984 11.3744 14.2623 11.2751 14.5021C11.1757 14.742 11.0075 14.9469 10.7917 15.0912C10.5758 15.2354 10.3221 15.3124 10.0625 15.3124C9.71438 15.3124 9.38054 15.1741 9.1344 14.9279C8.88826 14.6818 8.74998 14.348 8.74998 13.9999ZM17.3906 19.1077C16.3843 19.7714 15.2054 20.1252 14 20.1252C12.7945 20.1252 11.6156 19.7714 10.6093 19.1077C10.4187 18.9767 10.2868 18.7765 10.2419 18.5496C10.1969 18.3228 10.2424 18.0873 10.3687 17.8936C10.4318 17.7972 10.5132 17.7142 10.6084 17.6493C10.7036 17.5845 10.8107 17.5391 10.9235 17.5157C11.0363 17.4923 11.1526 17.4914 11.2657 17.5131C11.3789 17.5348 11.4866 17.5786 11.5828 17.642C12.2984 18.1198 13.1395 18.3748 14 18.3748C14.8604 18.3748 15.7015 18.1198 16.4171 17.642C16.5133 17.5786 16.621 17.5348 16.7342 17.5131C16.8473 17.4914 16.9636 17.4923 17.0764 17.5157C17.1892 17.5391 17.2963 17.5845 17.3915 17.6493C17.4867 17.7142 17.5682 17.7972 17.6312 17.8936C17.7575 18.0873 17.803 18.3228 17.758 18.5496C17.7131 18.7765 17.5812 18.9767 17.3906 19.1077ZM17.9375 15.3124C17.6779 15.3124 17.4241 15.2354 17.2083 15.0912C16.9924 14.9469 16.8242 14.742 16.7249 14.5021C16.6255 14.2623 16.5995 13.9984 16.6502 13.7438C16.7008 13.4892 16.8258 13.2553 17.0094 13.0718C17.1929 12.8882 17.4268 12.7632 17.6814 12.7126C17.936 12.6619 18.1999 12.6879 18.4397 12.7873C18.6795 12.8866 18.8845 13.0548 19.0288 13.2707C19.173 13.4865 19.2499 13.7403 19.2499 13.9999C19.2499 14.348 19.1117 14.6818 18.8655 14.9279C18.6194 15.1741 18.2855 15.3124 17.9375 15.3124Z" fill="#293056"/>
</svg>
