<svg width="32" height="28" viewBox="0 0 32 28" fill="none" xmlns="http://www.w3.org/2000/svg">
<g clip-path="url(#clip0_177_2617)">
<path d="M11.3756 0C9.74043 0 8.38418 1.12109 7.9959 2.63593C7.95215 2.63593 7.91934 2.62499 7.87559 2.62499C5.94513 2.62499 4.3756 4.19452 4.3756 6.12498C4.3756 6.38748 4.40841 6.64451 4.46857 6.89061C2.8717 7.54685 1.75061 9.11091 1.75061 10.9375C1.75061 11.6265 1.92561 12.2664 2.20451 12.8461C0.892018 13.6007 0.000614078 15.0007 0.000614078 16.625C0.000614078 18.446 1.11624 20.0101 2.70217 20.6663C2.65295 20.9179 2.62561 21.1749 2.62561 21.4374C2.62561 23.614 4.38654 25.3749 6.5631 25.3749C6.78731 25.3749 7.00606 25.3476 7.21934 25.3093C7.74434 26.8679 9.19903 27.9999 10.9381 27.9999C13.1146 27.9999 14.8756 26.239 14.8756 24.0624V3.49999C14.8756 1.56953 13.306 0 11.3756 0ZM31.5005 16.625C31.5005 15.0007 30.6091 13.6007 29.2966 12.8461C29.581 12.2664 29.7505 11.6265 29.7505 10.9375C29.7505 9.11091 28.6294 7.54685 27.0326 6.89061C27.0873 6.64451 27.1255 6.38748 27.1255 6.12498C27.1255 4.19452 25.556 2.62499 23.6255 2.62499C23.5818 2.62499 23.5435 2.63593 23.5052 2.63593C23.117 1.12109 21.7607 0 20.1256 0C18.1951 0 16.6256 1.56406 16.6256 3.49999V24.0624C16.6256 26.239 18.3865 27.9999 20.5631 27.9999C22.3021 27.9999 23.7568 26.8679 24.2818 25.3093C24.4951 25.3476 24.7138 25.3749 24.938 25.3749C27.1146 25.3749 28.8755 23.614 28.8755 21.4374C28.8755 21.1749 28.8482 20.9179 28.799 20.6663C30.3849 20.0101 31.5005 18.446 31.5005 16.625Z" fill="#0040DD"/>
</g>
<defs>
<clipPath id="clip0_177_2617">
<rect width="31.31" height="27.83" fill="white" transform="scale(1.00611)"/>
</clipPath>
</defs>
</svg>
